<svg version="1.1" xmlns="http://www.w3.org/2000/svg" viewBox="0 0 1066.5756523393607 629.2441359019695" width="1066.5756523393607" height="629.2441359019695" filter="invert(93%) hue-rotate(180deg)" class="excalidraw-svg">
  <!-- svg-source:excalidraw -->
  
  <defs>
    <style class="style-fonts">
      
    </style>
    
  </defs>
  <g transform="translate(381.207202449092 20.50565006992821) rotate(0 1.575843502901776 35.19393174184705)" stroke="none"><path fill="#1e1e1e" d="M 1.77,-0.25 Q 1.77,-0.25 2.01,1.87 2.24,3.99 2.63,7.63 3.02,11.27 3.47,17.68 3.92,24.08 4.11,31.96 4.29,39.84 4.36,46.51 4.43,53.17 4.45,57.82 4.48,62.46 4.56,65.68 4.64,68.90 4.61,69.14 4.57,69.38 4.46,69.60 4.35,69.81 4.17,69.98 4.00,70.15 3.78,70.25 3.56,70.36 3.32,70.39 3.08,70.41 2.84,70.36 2.60,70.31 2.39,70.19 2.18,70.07 2.02,69.88 1.86,69.70 1.77,69.48 1.68,69.25 1.66,69.01 1.65,68.77 1.71,68.53 1.77,68.30 1.91,68.10 2.04,67.89 2.23,67.74 2.43,67.60 2.66,67.52 2.88,67.44 3.13,67.43 3.37,67.43 3.60,67.51 3.83,67.58 4.03,67.73 4.22,67.87 4.36,68.07 4.50,68.27 4.57,68.50 4.63,68.74 4.62,68.98 4.61,69.22 4.52,69.45 4.44,69.68 4.28,69.86 4.13,70.05 3.92,70.18 3.71,70.30 3.48,70.36 3.24,70.41 3.00,70.39 2.76,70.36 2.53,70.27 2.31,70.17 2.13,70.00 1.96,69.83 1.84,69.62 1.72,69.41 1.68,69.17 1.64,68.93 1.64,68.93 1.64,68.93 1.67,65.71 1.71,62.48 1.66,57.85 1.61,53.21 1.50,46.56 1.39,39.92 1.17,32.11 0.94,24.31 0.42,17.98 -0.09,11.64 -0.56,8.05 -1.04,4.46 -1.40,2.35 -1.77,0.25 -1.77,0.03 -1.78,-0.17 -1.73,-0.38 -1.68,-0.59 -1.59,-0.79 -1.49,-0.98 -1.35,-1.15 -1.21,-1.31 -1.04,-1.44 -0.86,-1.56 -0.66,-1.64 -0.46,-1.72 -0.25,-1.76 -0.03,-1.79 0.17,-1.76 0.39,-1.74 0.59,-1.67 0.79,-1.60 0.97,-1.48 1.15,-1.36 1.30,-1.20 1.45,-1.04 1.55,-0.85 1.66,-0.67 1.71,-0.46 1.77,-0.25 1.77,-0.25 L 1.77,-0.25 Z"></path></g><g transform="translate(373.8532393849673 27.859613134052893) rotate(0 15.233200616570855 -8.929806567026446)" stroke="none"><path fill="#1e1e1e" d="M -1.59,-1.19 Q -1.59,-1.19 0.31,-3.57 2.21,-5.95 7.18,-8.94 12.15,-11.94 15.07,-13.70 17.99,-15.47 20.88,-16.57 23.77,-17.68 26.01,-17.82 28.24,-17.96 29.77,-16.66 31.30,-15.36 31.45,-15.11 31.61,-14.87 31.68,-14.60 31.74,-14.32 31.72,-14.04 31.70,-13.75 31.58,-13.49 31.47,-13.23 31.28,-13.02 31.09,-12.81 30.84,-12.67 30.59,-12.53 30.31,-12.47 30.03,-12.42 29.75,-12.46 29.47,-12.50 29.21,-12.62 28.96,-12.75 28.76,-12.95 28.56,-13.16 28.43,-13.41 28.30,-13.67 28.27,-13.95 28.23,-14.23 28.28,-14.51 28.34,-14.79 28.48,-15.04 28.62,-15.29 28.83,-15.48 29.04,-15.67 29.30,-15.78 29.57,-15.89 29.85,-15.91 30.13,-15.94 30.41,-15.87 30.69,-15.80 30.93,-15.64 31.17,-15.49 31.35,-15.27 31.52,-15.05 31.62,-14.78 31.72,-14.51 31.73,-14.22 31.73,-13.94 31.65,-13.67 31.57,-13.40 31.40,-13.16 31.23,-12.93 31.00,-12.77 30.77,-12.60 30.50,-12.52 30.22,-12.43 29.94,-12.44 29.65,-12.45 29.39,-12.55 29.12,-12.65 28.90,-12.83 28.68,-13.01 28.68,-13.01 28.68,-13.01 28.06,-14.10 27.45,-15.19 26.14,-15.03 24.84,-14.86 22.24,-13.83 19.65,-12.79 16.76,-10.93 13.88,-9.07 9.46,-6.39 5.03,-3.71 3.31,-1.25 1.59,1.19 1.42,1.36 1.26,1.54 1.05,1.66 0.85,1.79 0.62,1.87 0.40,1.95 0.16,1.97 -0.07,1.98 -0.31,1.95 -0.55,1.91 -0.77,1.81 -0.99,1.72 -1.18,1.58 -1.37,1.43 -1.53,1.25 -1.68,1.06 -1.78,0.84 -1.88,0.63 -1.93,0.39 -1.98,0.16 -1.97,-0.07 -1.96,-0.31 -1.89,-0.54 -1.83,-0.77 -1.71,-0.98 -1.59,-1.19 -1.59,-1.19 L -1.59,-1.19 Z"></path></g><g transform="translate(382.25777146367227 48.870913273909366) rotate(0 19.435446617986045 -6.3033940495444085)" stroke="none"><path fill="#1e1e1e" d="M -0.81,-1.63 Q -0.81,-1.63 2.23,-3.08 5.28,-4.53 8.46,-5.75 11.64,-6.98 15.71,-8.39 19.79,-9.80 23.39,-10.71 26.98,-11.61 31.72,-12.70 36.45,-13.79 36.72,-13.80 36.98,-13.81 37.24,-13.74 37.50,-13.66 37.72,-13.51 37.94,-13.36 38.10,-13.14 38.26,-12.93 38.34,-12.67 38.42,-12.42 38.42,-12.15 38.42,-11.88 38.33,-11.63 38.24,-11.38 38.08,-11.16 37.91,-10.95 37.69,-10.81 37.46,-10.66 37.20,-10.59 36.95,-10.52 36.68,-10.54 36.41,-10.56 36.16,-10.66 35.92,-10.76 35.71,-10.94 35.51,-11.11 35.38,-11.34 35.24,-11.57 35.19,-11.84 35.13,-12.10 35.16,-12.36 35.20,-12.63 35.31,-12.87 35.43,-13.11 35.61,-13.31 35.80,-13.50 36.04,-13.62 36.28,-13.74 36.54,-13.78 36.80,-13.82 37.07,-13.78 37.33,-13.73 37.57,-13.60 37.80,-13.48 37.98,-13.28 38.17,-13.08 38.28,-12.84 38.39,-12.59 38.41,-12.33 38.44,-12.06 38.38,-11.80 38.32,-11.54 38.18,-11.31 38.04,-11.08 37.83,-10.91 37.62,-10.74 37.37,-10.64 37.12,-10.55 37.12,-10.55 37.12,-10.55 32.42,-9.67 27.71,-8.79 24.26,-7.87 20.80,-6.95 16.81,-5.49 12.82,-4.03 9.81,-2.77 6.79,-1.50 3.80,0.06 0.81,1.63 0.60,1.70 0.40,1.78 0.18,1.80 -0.03,1.82 -0.25,1.79 -0.47,1.76 -0.67,1.68 -0.88,1.60 -1.05,1.47 -1.23,1.34 -1.38,1.17 -1.52,1.00 -1.62,0.81 -1.72,0.61 -1.76,0.39 -1.81,0.18 -1.81,-0.03 -1.80,-0.25 -1.75,-0.46 -1.69,-0.68 -1.58,-0.87 -1.48,-1.06 -1.33,-1.22 -1.18,-1.39 -1.00,-1.51 -0.81,-1.63 -0.81,-1.63 L -0.81,-1.63 Z"></path></g><g transform="translate(425.3309407579655 53.07314925635592) rotate(0 14.182621583021927 14.707926128249369)" stroke="none"><path fill="#1e1e1e" d="M 1.73,-0.24 Q 1.73,-0.24 2.27,3.98 2.82,8.22 3.34,13.06 3.86,17.91 4.66,22.32 5.46,26.74 6.09,29.51 6.72,32.28 7.41,33.45 8.10,34.62 8.12,34.82 8.14,35.02 8.12,35.22 8.09,35.42 8.02,35.60 7.95,35.79 7.83,35.95 7.72,36.11 7.56,36.25 7.41,36.38 7.24,36.47 7.06,36.56 6.86,36.60 6.67,36.65 6.47,36.65 6.27,36.65 6.08,36.60 5.88,36.55 5.71,36.45 5.53,36.36 5.38,36.22 5.24,36.09 5.13,35.92 5.01,35.76 4.94,35.57 4.88,35.38 5.12,33.99 5.35,32.60 5.49,29.33 5.62,26.05 6.00,20.93 6.39,15.81 7.80,11.07 9.21,6.33 11.72,2.68 14.22,-0.95 16.89,-3.16 19.56,-5.37 23.84,-6.13 28.11,-6.90 28.34,-6.80 28.57,-6.71 28.76,-6.54 28.95,-6.38 29.07,-6.16 29.20,-5.94 29.25,-5.70 29.30,-5.45 29.27,-5.20 29.24,-4.95 29.13,-4.73 29.02,-4.50 28.84,-4.32 28.67,-4.15 28.44,-4.03 28.22,-3.92 27.97,-3.88 27.73,-3.84 27.48,-3.89 27.23,-3.93 27.01,-4.05 26.79,-4.17 26.63,-4.36 26.46,-4.54 26.35,-4.77 26.25,-5.00 26.23,-5.25 26.21,-5.50 26.26,-5.74 26.32,-5.99 26.46,-6.20 26.59,-6.41 26.78,-6.57 26.97,-6.73 27.21,-6.82 27.44,-6.91 27.69,-6.92 27.94,-6.93 28.18,-6.86 28.42,-6.79 28.63,-6.64 28.83,-6.50 28.98,-6.30 29.13,-6.09 29.21,-5.86 29.28,-5.62 29.28,-5.37 29.27,-5.12 29.19,-4.88 29.11,-4.65 28.95,-4.45 28.80,-4.25 28.59,-4.11 28.38,-3.98 28.14,-3.91 27.89,-3.85 27.64,-3.87 27.39,-3.89 27.39,-3.89 27.39,-3.89 24.34,-3.54 21.29,-3.20 18.91,-1.26 16.53,0.67 14.25,3.93 11.98,7.20 10.68,11.62 9.39,16.03 9.08,21.09 8.77,26.15 8.43,30.39 8.10,34.62 8.12,34.82 8.14,35.02 8.12,35.22 8.09,35.42 8.02,35.60 7.95,35.79 7.83,35.95 7.72,36.11 7.57,36.25 7.41,36.38 7.24,36.47 7.06,36.56 6.86,36.60 6.67,36.65 6.47,36.65 6.27,36.65 6.08,36.60 5.88,36.55 5.71,36.45 5.53,36.36 5.39,36.22 5.24,36.09 5.13,35.92 5.01,35.76 4.94,35.57 4.88,35.38 4.40,34.17 3.93,32.96 3.24,30.12 2.55,27.29 1.67,22.78 0.79,18.27 0.19,13.47 -0.40,8.68 -1.07,4.46 -1.73,0.24 -1.73,0.03 -1.74,-0.17 -1.69,-0.38 -1.64,-0.58 -1.55,-0.77 -1.46,-0.96 -1.32,-1.12 -1.18,-1.28 -1.01,-1.40 -0.84,-1.53 -0.65,-1.61 -0.45,-1.69 -0.24,-1.72 -0.03,-1.75 0.17,-1.72 0.38,-1.70 0.58,-1.63 0.78,-1.56 0.95,-1.45 1.13,-1.33 1.27,-1.17 1.41,-1.02 1.52,-0.83 1.62,-0.65 1.67,-0.45 1.73,-0.24 1.73,-0.24 L 1.73,-0.24 Z"></path></g><g transform="translate(465.25242304645514 70.93276239040881) rotate(0 14.70788605237476 -5.2528049970268285)" stroke="none"><path fill="#1e1e1e" d="M -1.03,-1.47 Q -1.03,-1.47 2.02,-3.53 5.08,-5.59 7.45,-7.79 9.83,-9.98 10.14,-12.75 10.44,-15.52 9.57,-16.46 8.70,-17.39 6.07,-15.06 3.44,-12.72 2.66,-9.74 1.89,-6.77 2.66,-3.90 3.43,-1.02 5.37,1.57 7.31,4.18 10.93,5.21 14.55,6.25 18.17,6.46 21.78,6.67 25.17,5.83 28.55,5.00 28.82,4.99 29.09,4.98 29.34,5.05 29.60,5.13 29.82,5.28 30.04,5.44 30.20,5.65 30.36,5.87 30.44,6.12 30.52,6.38 30.51,6.65 30.51,6.91 30.42,7.17 30.33,7.42 30.16,7.63 30.00,7.84 29.77,7.99 29.55,8.13 29.29,8.20 29.03,8.27 28.77,8.25 28.50,8.23 28.25,8.13 28.00,8.02 27.80,7.85 27.60,7.67 27.47,7.44 27.33,7.21 27.28,6.94 27.23,6.68 27.26,6.42 27.29,6.15 27.41,5.91 27.53,5.67 27.71,5.48 27.90,5.29 28.14,5.16 28.38,5.04 28.64,5.00 28.91,4.96 29.17,5.01 29.43,5.06 29.67,5.19 29.90,5.32 30.08,5.52 30.27,5.71 30.37,5.96 30.48,6.20 30.51,6.47 30.53,6.74 30.47,7.00 30.41,7.26 30.27,7.48 30.12,7.71 29.92,7.88 29.71,8.05 29.46,8.15 29.21,8.24 29.21,8.24 29.21,8.24 25.42,8.86 21.64,9.48 17.68,9.25 13.71,9.02 9.45,7.60 5.20,6.18 2.81,3.00 0.43,-0.17 -0.44,-3.79 -1.32,-7.42 -0.30,-11.20 0.72,-14.99 3.20,-17.60 5.69,-20.21 7.70,-20.53 9.71,-20.84 11.30,-19.85 12.90,-18.85 13.16,-16.98 13.42,-15.11 12.81,-11.60 12.21,-8.10 9.60,-5.48 7.00,-2.86 4.01,-0.69 1.03,1.47 0.84,1.57 0.64,1.68 0.43,1.73 0.22,1.78 0.01,1.78 -0.20,1.78 -0.41,1.73 -0.62,1.68 -0.82,1.58 -1.01,1.48 -1.17,1.34 -1.34,1.20 -1.46,1.02 -1.58,0.84 -1.66,0.64 -1.74,0.44 -1.77,0.22 -1.80,0.01 -1.77,-0.20 -1.75,-0.41 -1.67,-0.62 -1.60,-0.82 -1.47,-1.00 -1.35,-1.18 -1.19,-1.33 -1.03,-1.47 -1.03,-1.47 L -1.03,-1.47 Z"></path></g><g transform="translate(526.185185436864 62.528250349641155) rotate(0 -11.030944596186998 -15.233200616570855)" stroke="none"><path fill="#1e1e1e" d="M -1.10,1.10 Q -1.10,1.10 -2.89,-0.73 -4.67,-2.56 -7.16,-4.49 -9.65,-6.42 -12.10,-7.50 -14.55,-8.57 -17.18,-9.05 -19.81,-9.52 -21.87,-8.03 -23.94,-6.54 -25.38,-3.67 -26.83,-0.81 -27.48,2.40 -28.12,5.62 -27.37,8.14 -26.62,10.66 -23.80,11.66 -20.98,12.65 -18.20,12.27 -15.43,11.90 -12.29,8.88 -9.16,5.86 -6.64,-0.10 -4.11,-6.08 -3.01,-12.18 -1.92,-18.29 -2.35,-22.89 -2.78,-27.49 -3.85,-32.46 -4.93,-37.43 -5.68,-39.82 -6.42,-42.21 -6.87,-42.91 -7.31,-43.61 -7.34,-43.80 -7.37,-43.98 -7.36,-44.17 -7.35,-44.36 -7.30,-44.54 -7.24,-44.72 -7.14,-44.88 -7.05,-45.04 -6.91,-45.17 -6.78,-45.30 -6.62,-45.40 -6.46,-45.50 -6.28,-45.56 -6.10,-45.61 -5.91,-45.62 -5.72,-45.63 -5.54,-45.60 -5.36,-45.57 -5.18,-45.49 -5.01,-45.41 -4.86,-45.30 -4.72,-45.18 -4.60,-45.03 -4.48,-44.88 -4.41,-44.71 -4.33,-44.54 -3.66,-43.53 -2.98,-42.52 -1.12,-38.27 0.74,-34.02 2.44,-26.69 4.15,-19.36 4.86,-14.43 5.58,-9.50 5.87,-4.04 6.17,1.40 6.58,5.14 7.00,8.88 8.13,10.45 9.26,12.02 9.35,12.25 9.44,12.49 9.46,12.75 9.47,13.00 9.40,13.25 9.33,13.49 9.19,13.70 9.05,13.91 8.84,14.07 8.64,14.22 8.40,14.30 8.16,14.38 7.90,14.38 7.65,14.38 7.41,14.30 7.16,14.22 6.96,14.06 6.76,13.91 6.62,13.70 6.47,13.49 6.41,13.24 6.34,12.99 6.35,12.74 6.37,12.49 6.46,12.25 6.56,12.01 6.72,11.82 6.89,11.62 7.11,11.49 7.32,11.36 7.57,11.31 7.82,11.25 8.08,11.28 8.33,11.31 8.56,11.42 8.79,11.52 8.98,11.70 9.16,11.88 9.28,12.10 9.40,12.33 9.44,12.58 9.48,12.83 9.44,13.08 9.40,13.33 9.28,13.56 9.16,13.78 8.97,13.96 8.79,14.13 8.55,14.24 8.32,14.35 8.07,14.37 7.82,14.40 7.57,14.34 7.32,14.29 7.10,14.16 6.88,14.03 6.72,13.83 6.55,13.64 6.55,13.64 6.55,13.64 5.44,11.46 4.33,9.29 3.87,5.42 3.42,1.56 3.11,-3.76 2.80,-9.09 2.08,-13.90 1.36,-18.71 -0.30,-25.76 -1.96,-32.82 -3.77,-36.84 -5.58,-40.85 -6.44,-42.23 -7.31,-43.61 -7.34,-43.80 -7.37,-43.98 -7.36,-44.17 -7.35,-44.36 -7.30,-44.54 -7.24,-44.72 -7.14,-44.88 -7.05,-45.04 -6.91,-45.17 -6.78,-45.30 -6.62,-45.40 -6.46,-45.50 -6.28,-45.56 -6.10,-45.61 -5.91,-45.62 -5.73,-45.63 -5.54,-45.60 -5.36,-45.57 -5.18,-45.49 -5.01,-45.41 -4.86,-45.30 -4.72,-45.18 -4.60,-45.03 -4.49,-44.88 -4.41,-44.71 -4.33,-44.54 -4.12,-43.77 -3.91,-42.99 -3.14,-40.49 -2.36,-37.98 -1.26,-32.86 -0.16,-27.73 0.25,-22.79 0.66,-17.84 -0.50,-11.45 -1.68,-5.05 -4.50,1.33 -7.32,7.73 -11.08,11.06 -14.83,14.40 -18.32,14.76 -21.81,15.13 -25.20,13.60 -28.60,12.07 -29.67,8.65 -30.74,5.24 -29.98,1.59 -29.23,-2.04 -27.39,-5.37 -25.54,-8.70 -22.71,-10.42 -19.87,-12.14 -16.66,-11.65 -13.44,-11.16 -10.68,-9.94 -7.91,-8.73 -5.24,-6.70 -2.56,-4.68 -0.73,-2.89 1.10,-1.10 1.22,-0.95 1.33,-0.80 1.41,-0.63 1.49,-0.46 1.52,-0.27 1.55,-0.09 1.54,0.09 1.53,0.28 1.48,0.46 1.42,0.64 1.32,0.80 1.22,0.96 1.09,1.09 0.96,1.22 0.80,1.32 0.64,1.42 0.46,1.48 0.28,1.53 0.09,1.54 -0.09,1.55 -0.27,1.52 -0.46,1.49 -0.63,1.41 -0.80,1.33 -0.95,1.22 -1.10,1.10 -1.10,1.10 L -1.10,1.10 Z"></path></g><g transform="translate(174.34290012180503 283.80784078976535) rotate(0 1.633373737166778 40.017898006487826)" stroke="none"><path fill="#1e1e1e" d="M 1.87,0 Q 1.87,0 1.79,3.28 1.72,6.57 2.13,18.27 2.55,29.96 2.70,39.19 2.86,48.41 2.92,56.56 2.97,64.71 3.45,69.51 3.93,74.30 4.96,76.34 5.98,78.38 6.05,78.64 6.11,78.90 6.09,79.16 6.07,79.43 5.96,79.67 5.85,79.92 5.68,80.12 5.50,80.31 5.26,80.45 5.03,80.58 4.77,80.63 4.51,80.68 4.24,80.64 3.98,80.60 3.74,80.48 3.50,80.36 3.31,80.18 3.12,79.99 3.00,79.75 2.89,79.51 2.85,79.24 2.82,78.98 2.87,78.72 2.92,78.45 3.05,78.22 3.18,77.99 3.38,77.81 3.58,77.63 3.82,77.53 4.07,77.42 4.34,77.40 4.60,77.38 4.86,77.45 5.12,77.51 5.35,77.66 5.57,77.80 5.74,78.01 5.90,78.22 6.00,78.47 6.09,78.72 6.09,78.99 6.10,79.25 6.02,79.51 5.94,79.76 5.79,79.98 5.63,80.20 5.41,80.35 5.20,80.51 4.94,80.58 4.68,80.66 4.42,80.65 4.15,80.65 3.90,80.55 3.65,80.46 3.44,80.29 3.23,80.13 3.09,79.90 2.95,79.67 2.95,79.67 2.95,79.68 2.02,77.15 1.10,74.63 0.56,69.69 0.03,64.75 -0.07,56.61 -0.19,48.48 -0.43,39.29 -0.67,30.09 -1.19,18.33 -1.72,6.57 -1.79,3.28 -1.87,0 -1.84,-0.22 -1.82,-0.44 -1.74,-0.66 -1.66,-0.87 -1.53,-1.05 -1.40,-1.24 -1.23,-1.39 -1.06,-1.54 -0.86,-1.64 -0.66,-1.75 -0.44,-1.80 -0.22,-1.86 0.00,-1.86 0.22,-1.86 0.44,-1.80 0.66,-1.75 0.86,-1.64 1.06,-1.54 1.23,-1.39 1.40,-1.24 1.53,-1.05 1.66,-0.87 1.74,-0.65 1.82,-0.44 1.84,-0.22 1.87,0.00 1.87,0.00 L 1.87,0 Z"></path></g><g transform="translate(213.54408789397706 301.77509209299444) rotate(0 -13.067052205954042 25.3174253319022)" stroke="none"><path fill="#1e1e1e" d="M 0.93,1.24 Q 0.93,1.24 -0.96,2.63 -2.86,4.01 -9.74,9.73 -16.63,15.45 -22.82,21.60 -29.00,27.75 -31.19,29.91 -33.37,32.07 -33.50,32.17 -33.63,32.27 -33.79,32.34 -33.94,32.41 -34.10,32.44 -34.27,32.47 -34.43,32.46 -34.60,32.45 -34.76,32.40 -34.92,32.35 -35.06,32.26 -35.20,32.18 -35.32,32.06 -35.44,31.94 -35.52,31.80 -35.61,31.66 -35.66,31.50 -35.71,31.34 -35.72,31.17 -35.73,31.01 -35.70,30.84 -35.67,30.68 -35.60,30.53 -35.53,30.37 -35.43,30.24 -35.33,30.11 -31.54,29.89 -27.75,29.67 -24.08,29.21 -20.41,28.75 -16.83,28.56 -13.24,28.38 -9.10,30.73 -4.96,33.07 -1.34,36.47 2.26,39.87 5.17,42.69 8.07,45.51 10.48,47.05 12.90,48.59 13.08,48.77 13.27,48.95 13.38,49.17 13.50,49.40 13.53,49.65 13.57,49.91 13.52,50.16 13.48,50.41 13.36,50.63 13.23,50.85 13.04,51.03 12.86,51.20 12.62,51.30 12.39,51.40 12.13,51.43 11.88,51.45 11.63,51.39 11.38,51.33 11.17,51.20 10.95,51.06 10.79,50.87 10.63,50.67 10.54,50.43 10.45,50.19 10.44,49.94 10.43,49.68 10.50,49.44 10.57,49.19 10.72,48.98 10.87,48.77 11.07,48.62 11.28,48.47 11.52,48.39 11.77,48.32 12.02,48.32 12.28,48.33 12.52,48.41 12.76,48.50 12.96,48.66 13.16,48.81 13.30,49.03 13.44,49.24 13.50,49.49 13.56,49.73 13.55,49.99 13.53,50.24 13.43,50.48 13.33,50.71 13.16,50.91 12.99,51.10 12.77,51.23 12.55,51.35 12.30,51.40 12.05,51.45 11.80,51.42 11.54,51.39 11.32,51.28 11.09,51.17 11.09,51.17 11.09,51.17 8.65,49.29 6.22,47.42 3.33,44.61 0.43,41.81 -2.95,38.59 -6.34,35.37 -9.84,33.19 -13.35,31.01 -16.71,31.23 -20.07,31.45 -23.90,31.95 -27.74,32.44 -30.55,32.25 -33.37,32.07 -33.50,32.17 -33.63,32.27 -33.79,32.34 -33.94,32.41 -34.10,32.44 -34.27,32.47 -34.43,32.46 -34.60,32.45 -34.76,32.40 -34.92,32.35 -35.06,32.26 -35.20,32.18 -35.32,32.06 -35.44,31.94 -35.52,31.80 -35.61,31.66 -35.66,31.50 -35.71,31.34 -35.72,31.17 -35.73,31.01 -35.70,30.84 -35.67,30.68 -35.60,30.53 -35.53,30.37 -35.43,30.24 -35.33,30.11 -33.16,27.93 -30.99,25.76 -24.74,19.49 -18.48,13.23 -11.57,7.42 -4.65,1.62 -2.79,0.18 -0.93,-1.24 -0.77,-1.34 -0.61,-1.43 -0.43,-1.48 -0.24,-1.54 -0.06,-1.54 0.12,-1.55 0.31,-1.51 0.49,-1.48 0.66,-1.40 0.83,-1.31 0.98,-1.20 1.12,-1.08 1.24,-0.93 1.35,-0.77 1.42,-0.60 1.50,-0.43 1.53,-0.24 1.56,-0.06 1.54,0.12 1.53,0.31 1.47,0.49 1.41,0.67 1.30,0.83 1.20,0.98 1.07,1.11 0.93,1.24 0.93,1.24 L 0.93,1.24 Z"></path></g><g transform="translate(259.278832923436 313.2087861389367) rotate(0 -5.716847022971109 14.700441520275774)" stroke="none"><path fill="#1e1e1e" d="M 0.50,1.52 Q 0.50,1.52 -0.88,2.07 -2.27,2.61 -5.87,2.78 -9.48,2.95 -13.44,5.24 -17.40,7.54 -19.51,9.78 -21.62,12.02 -22.46,15.52 -23.30,19.02 -22.51,21.56 -21.71,24.10 -18.37,25.14 -15.04,26.18 -10.58,24.43 -6.13,22.68 -3.38,18.84 -0.63,14.99 0.56,12.00 1.77,9.02 2.25,7.25 2.73,5.48 2.89,5.18 3.04,4.87 3.12,4.70 3.19,4.53 3.31,4.37 3.43,4.22 3.57,4.10 3.72,3.99 3.90,3.91 4.07,3.83 4.26,3.79 4.44,3.75 4.63,3.76 4.83,3.77 5.01,3.83 5.19,3.88 5.35,3.98 5.52,4.08 5.65,4.21 5.79,4.34 5.89,4.51 5.99,4.67 6.05,4.85 6.11,5.03 6.12,5.22 6.13,5.41 6.10,5.60 6.07,5.79 6.11,8.23 6.15,10.66 6.16,14.57 6.16,18.48 7.89,20.74 9.62,23.01 11.89,23.62 14.15,24.23 14.38,24.35 14.60,24.48 14.77,24.67 14.95,24.87 15.05,25.10 15.15,25.34 15.17,25.60 15.19,25.86 15.13,26.11 15.07,26.36 14.93,26.58 14.79,26.79 14.58,26.95 14.38,27.12 14.14,27.20 13.90,27.29 13.64,27.30 13.38,27.31 13.13,27.23 12.89,27.15 12.68,27.00 12.47,26.85 12.32,26.64 12.17,26.43 12.09,26.18 12.02,25.94 12.02,25.68 12.03,25.42 12.12,25.18 12.21,24.93 12.37,24.73 12.53,24.53 12.75,24.39 12.97,24.25 13.22,24.19 13.47,24.13 13.73,24.15 13.99,24.17 14.23,24.28 14.46,24.38 14.65,24.55 14.85,24.73 14.97,24.95 15.10,25.18 15.15,25.43 15.20,25.68 15.16,25.94 15.13,26.20 15.01,26.43 14.89,26.66 14.71,26.84 14.53,27.02 14.30,27.14 14.06,27.25 13.81,27.29 13.55,27.32 13.30,27.27 13.04,27.22 13.04,27.22 13.05,27.22 10.34,25.99 7.63,24.76 5.57,21.78 3.50,18.80 3.42,14.78 3.35,10.77 3.19,7.82 3.04,4.88 3.12,4.70 3.19,4.53 3.31,4.37 3.42,4.22 3.57,4.10 3.72,3.99 3.90,3.91 4.07,3.83 4.26,3.79 4.44,3.75 4.63,3.76 4.82,3.77 5.01,3.83 5.19,3.88 5.35,3.98 5.52,4.08 5.65,4.21 5.79,4.34 5.89,4.51 5.99,4.67 6.05,4.85 6.11,5.03 6.12,5.22 6.13,5.41 6.10,5.60 6.07,5.79 5.76,6.08 5.45,6.37 4.85,8.20 4.25,10.03 2.89,13.30 1.54,16.58 -1.72,20.83 -4.98,25.09 -10.25,26.94 -15.52,28.78 -19.61,27.23 -23.69,25.68 -24.89,22.12 -26.09,18.57 -24.98,14.36 -23.88,10.15 -21.43,7.51 -18.97,4.86 -14.39,2.29 -9.82,-0.27 -6.59,-0.50 -3.35,-0.73 -1.93,-1.13 -0.50,-1.52 -0.31,-1.56 -0.12,-1.60 0.06,-1.59 0.25,-1.58 0.44,-1.53 0.63,-1.47 0.79,-1.38 0.96,-1.28 1.10,-1.14 1.24,-1.01 1.34,-0.85 1.45,-0.68 1.51,-0.50 1.57,-0.32 1.59,-0.12 1.60,0.06 1.57,0.25 1.54,0.44 1.46,0.62 1.39,0.80 1.27,0.95 1.15,1.11 1.00,1.23 0.85,1.35 0.68,1.44 0.50,1.52 0.50,1.52 L 0.50,1.52 Z"></path></g><g transform="translate(288.6797159639875 285.44126125839693) rotate(0 3.2667630514885104 29.400883040551548)" stroke="none"><path fill="#1e1e1e" d="M 1.80,0 Q 1.80,0 1.79,1.87 1.78,3.75 2.65,10.06 3.52,16.38 4.34,23.84 5.17,31.30 5.50,37.79 5.84,44.28 6.89,48.29 7.94,52.30 8.45,54.05 8.96,55.80 8.99,56.05 9.01,56.29 8.95,56.54 8.90,56.78 8.77,56.99 8.64,57.20 8.44,57.36 8.25,57.52 8.02,57.61 7.79,57.70 7.54,57.71 7.29,57.72 7.05,57.65 6.81,57.58 6.60,57.44 6.40,57.30 6.25,57.10 6.10,56.90 6.03,56.66 5.95,56.42 5.95,56.17 5.96,55.92 6.04,55.69 6.12,55.45 6.27,55.26 6.43,55.06 6.64,54.92 6.84,54.78 7.08,54.72 7.33,54.66 7.57,54.67 7.82,54.69 8.05,54.79 8.28,54.88 8.47,55.04 8.66,55.21 8.79,55.42 8.91,55.64 8.96,55.88 9.01,56.13 8.98,56.37 8.95,56.62 8.85,56.85 8.74,57.07 8.56,57.25 8.39,57.43 8.17,57.54 7.95,57.66 7.70,57.69 7.45,57.73 7.21,57.69 6.96,57.64 6.74,57.53 6.53,57.41 6.36,57.22 6.19,57.04 6.09,56.81 5.98,56.58 5.98,56.58 5.98,56.58 5.56,54.81 5.14,53.03 4.00,48.75 2.86,44.46 2.46,38.06 2.06,31.66 1.14,24.26 0.23,16.86 -0.77,10.31 -1.78,3.75 -1.79,1.87 -1.80,0 -1.77,-0.21 -1.74,-0.43 -1.67,-0.63 -1.59,-0.83 -1.47,-1.01 -1.34,-1.19 -1.18,-1.33 -1.02,-1.48 -0.83,-1.58 -0.63,-1.68 -0.42,-1.73 -0.21,-1.78 0.00,-1.78 0.21,-1.78 0.42,-1.73 0.63,-1.68 0.83,-1.58 1.02,-1.48 1.18,-1.33 1.34,-1.19 1.47,-1.01 1.59,-0.83 1.67,-0.63 1.74,-0.43 1.77,-0.21 1.80,0.00 1.80,0.00 L 1.80,0 Z"></path></g><g transform="translate(278.87941123236703 319.7422810876038) rotate(0 12.25037312594813 -4.083457708649405)" stroke="none"><path fill="#1e1e1e" d="M -0.58,-1.89 Q -0.58,-1.89 5.54,-3.69 11.67,-5.48 15.69,-6.68 19.71,-7.88 21.40,-8.45 23.09,-9.01 23.37,-9.05 23.65,-9.09 23.92,-9.04 24.20,-8.99 24.44,-8.86 24.68,-8.72 24.87,-8.52 25.06,-8.31 25.17,-8.05 25.29,-7.80 25.31,-7.52 25.34,-7.24 25.27,-6.97 25.21,-6.70 25.06,-6.46 24.91,-6.22 24.69,-6.05 24.48,-5.87 24.22,-5.77 23.95,-5.67 23.68,-5.66 23.40,-5.65 23.13,-5.73 22.86,-5.81 22.63,-5.97 22.40,-6.13 22.24,-6.36 22.07,-6.58 21.99,-6.85 21.90,-7.12 21.91,-7.40 21.91,-7.68 22.01,-7.94 22.10,-8.20 22.28,-8.42 22.45,-8.64 22.68,-8.79 22.92,-8.95 23.19,-9.02 23.46,-9.09 23.74,-9.07 24.02,-9.05 24.27,-8.94 24.53,-8.83 24.74,-8.64 24.95,-8.46 25.09,-8.22 25.23,-7.98 25.29,-7.70 25.34,-7.43 25.31,-7.15 25.27,-6.87 25.15,-6.62 25.03,-6.37 24.83,-6.17 24.63,-5.97 24.38,-5.84 24.14,-5.72 24.14,-5.72 24.14,-5.72 22.43,-5.20 20.72,-4.69 16.73,-3.36 12.74,-2.02 6.66,-0.06 0.58,1.89 0.34,1.94 0.11,1.98 -0.12,1.96 -0.36,1.95 -0.59,1.88 -0.82,1.80 -1.02,1.68 -1.23,1.56 -1.40,1.39 -1.56,1.22 -1.69,1.01 -1.81,0.80 -1.88,0.58 -1.95,0.35 -1.96,0.11 -1.98,-0.12 -1.93,-0.36 -1.89,-0.59 -1.79,-0.81 -1.69,-1.03 -1.54,-1.22 -1.40,-1.41 -1.21,-1.55 -1.02,-1.70 -0.80,-1.80 -0.58,-1.89 -0.58,-1.89 L -0.58,-1.89 Z"></path></g><g transform="translate(319.7139883188608 319.7422810876038) rotate(0 25.317440909057126 3.266778628643408)" stroke="none"><path fill="#1e1e1e" d="M -0.89,-1.49 Q -0.89,-1.49 3.82,-4.26 8.55,-7.02 11.38,-9.50 14.22,-11.98 15.34,-13.81 16.47,-15.63 16.44,-16.60 16.41,-17.56 16.54,-17.73 16.67,-17.89 16.83,-18.01 16.99,-18.14 17.18,-18.22 17.37,-18.31 17.57,-18.34 17.78,-18.38 17.98,-18.37 18.19,-18.35 18.38,-18.29 18.58,-18.23 18.75,-18.12 18.93,-18.02 19.08,-17.87 19.22,-17.72 19.33,-17.55 19.43,-17.37 19.49,-17.17 19.55,-16.98 19.57,-16.77 19.58,-16.57 19.54,-16.36 19.50,-16.16 19.42,-15.97 19.33,-15.79 17.81,-15.29 16.29,-14.80 12.46,-12.59 8.63,-10.38 5.69,-5.46 2.75,-0.54 2.82,4.02 2.90,8.59 6.93,12.70 10.96,16.81 19.03,18.56 27.10,20.31 34.69,19.71 42.28,19.11 45.59,18.86 48.90,18.62 49.12,18.64 49.34,18.66 49.54,18.74 49.74,18.83 49.90,18.98 50.06,19.13 50.17,19.32 50.28,19.51 50.32,19.73 50.36,19.94 50.33,20.16 50.30,20.38 50.20,20.57 50.10,20.77 49.94,20.92 49.79,21.08 49.59,21.17 49.40,21.27 49.18,21.30 48.96,21.33 48.74,21.28 48.53,21.24 48.34,21.13 48.15,21.02 48.00,20.86 47.86,20.70 47.77,20.49 47.69,20.29 47.67,20.07 47.65,19.85 47.71,19.64 47.76,19.43 47.88,19.24 48.00,19.06 48.17,18.92 48.34,18.79 48.55,18.71 48.75,18.64 48.97,18.63 49.19,18.63 49.40,18.69 49.61,18.76 49.79,18.89 49.97,19.02 50.09,19.20 50.22,19.37 50.28,19.58 50.35,19.79 50.34,20.01 50.33,20.23 50.26,20.44 50.18,20.64 50.04,20.81 49.90,20.98 49.72,21.10 49.53,21.22 49.32,21.27 49.11,21.32 49.11,21.32 49.11,21.32 45.80,21.58 42.49,21.85 34.50,22.44 26.51,23.03 17.82,20.97 9.13,18.90 4.65,14.03 0.18,9.15 0.13,3.63 0.08,-1.88 3.48,-7.45 6.88,-13.01 11.65,-15.29 16.41,-17.56 16.54,-17.73 16.67,-17.89 16.83,-18.01 16.99,-18.14 17.18,-18.22 17.37,-18.31 17.57,-18.34 17.78,-18.38 17.98,-18.37 18.19,-18.35 18.38,-18.29 18.58,-18.23 18.75,-18.12 18.93,-18.02 19.08,-17.87 19.22,-17.72 19.33,-17.55 19.43,-17.37 19.49,-17.17 19.55,-16.98 19.57,-16.77 19.58,-16.57 19.54,-16.36 19.50,-16.16 19.42,-15.98 19.33,-15.79 19.18,-15.01 19.04,-14.24 17.67,-11.97 16.29,-9.71 13.26,-6.97 10.23,-4.24 5.56,-1.37 0.89,1.49 0.70,1.57 0.51,1.66 0.30,1.70 0.09,1.73 -0.11,1.72 -0.31,1.71 -0.51,1.64 -0.72,1.58 -0.89,1.47 -1.07,1.36 -1.22,1.21 -1.37,1.06 -1.48,0.88 -1.59,0.70 -1.65,0.50 -1.71,0.30 -1.72,0.09 -1.73,-0.11 -1.69,-0.31 -1.66,-0.52 -1.57,-0.71 -1.48,-0.90 -1.35,-1.07 -1.22,-1.23 -1.06,-1.36 -0.89,-1.49 -0.89,-1.49 L -0.89,-1.49 Z"></path></g><g transform="translate(578.9621052450163 280.46820593179393) rotate(0 -3.629755953190596 27.223065801174812)" stroke="none"><path fill="#1e1e1e" d="M 0,1.56 Q 0,1.56 -2.43,1.52 -4.86,1.49 -9.25,2.14 -13.63,2.80 -16.66,4.68 -19.68,6.56 -20.55,8.24 -21.42,9.93 -20.23,11.52 -19.05,13.12 -13.91,14.80 -8.77,16.49 -2.33,18.33 4.10,20.17 8.38,21.76 12.66,23.34 14.31,26.69 15.96,30.05 12.70,34.64 9.44,39.23 4.11,43.27 -1.20,47.30 -5.64,48.66 -10.08,50.02 -10.23,50.10 -10.39,50.19 -10.55,50.24 -10.72,50.29 -10.90,50.30 -11.07,50.30 -11.24,50.27 -11.42,50.23 -11.57,50.16 -11.73,50.08 -11.87,49.97 -12.00,49.86 -12.11,49.72 -12.21,49.58 -12.28,49.42 -12.35,49.26 -12.38,49.09 -12.41,48.91 -12.39,48.74 -12.38,48.56 -12.32,48.40 -12.27,48.23 -12.17,48.08 -12.08,47.94 -11.95,47.82 -11.83,47.69 -12.04,47.94 -12.25,48.19 -12.11,48.00 -11.96,47.81 -11.77,47.68 -11.58,47.54 -11.35,47.48 -11.13,47.41 -10.89,47.42 -10.66,47.43 -10.44,47.52 -10.22,47.60 -10.04,47.75 -9.86,47.90 -9.73,48.10 -9.61,48.30 -9.56,48.53 -9.51,48.76 -9.53,49.00 -9.55,49.23 -9.65,49.44 -9.75,49.66 -9.91,49.83 -10.07,50.00 -10.27,50.11 -10.48,50.23 -10.71,50.27 -10.94,50.31 -11.17,50.27 -11.41,50.24 -11.61,50.13 -11.82,50.02 -11.99,49.85 -12.15,49.68 -12.25,49.47 -12.35,49.26 -12.38,49.02 -12.41,48.79 -12.36,48.56 -12.31,48.33 -12.19,48.13 -12.07,47.93 -11.89,47.77 -11.72,47.62 -11.50,47.53 -11.28,47.44 -11.05,47.42 -10.81,47.41 -10.59,47.47 -10.36,47.53 -10.16,47.66 -9.97,47.79 -9.82,47.98 -9.68,48.16 -9.60,48.38 -9.52,48.61 -9.52,48.84 -9.52,49.08 -9.80,49.55 -10.08,50.02 -10.23,50.10 -10.39,50.19 -10.55,50.24 -10.72,50.29 -10.90,50.30 -11.07,50.30 -11.24,50.27 -11.41,50.23 -11.57,50.16 -11.73,50.08 -11.87,49.97 -12.00,49.86 -12.11,49.72 -12.21,49.58 -12.28,49.42 -12.35,49.26 -12.38,49.09 -12.41,48.91 -12.39,48.74 -12.38,48.56 -12.32,48.40 -12.27,48.23 -12.17,48.08 -12.08,47.94 -11.95,47.82 -11.83,47.69 -7.31,46.44 -2.78,45.19 2.28,41.40 7.35,37.62 10.54,33.64 13.73,29.67 12.55,27.59 11.37,25.51 7.37,24.13 3.36,22.75 -3.14,20.89 -9.66,19.04 -15.35,16.93 -21.05,14.83 -22.44,12.42 -23.84,10.01 -22.59,7.18 -21.34,4.35 -17.75,2.16 -14.15,-0.02 -9.51,-0.75 -4.87,-1.49 -2.43,-1.52 0,-1.56 0.18,-1.53 0.37,-1.51 0.54,-1.45 0.72,-1.38 0.88,-1.27 1.03,-1.16 1.16,-1.02 1.28,-0.88 1.37,-0.72 1.46,-0.55 1.50,-0.37 1.55,-0.18 1.55,0.00 1.55,0.18 1.50,0.37 1.46,0.55 1.37,0.72 1.28,0.88 1.16,1.02 1.03,1.16 0.88,1.27 0.72,1.38 0.54,1.45 0.37,1.51 0.18,1.53 -0.00,1.56 -0.00,1.56 L 0,1.56 Z"></path></g><g transform="translate(634.6181324211507 302.24664934182226) rotate(0 -10.889221705014194 12.704111220248848)" stroke="none"><path fill="#1e1e1e" d="M -0.31,1.55 Q -0.31,1.55 -2.05,1.24 -3.80,0.94 -7.19,0.75 -10.58,0.57 -14.78,0.82 -18.97,1.07 -21.56,1.74 -24.15,2.40 -25.41,4.79 -26.66,7.18 -25.55,11.11 -24.45,15.04 -23.48,16.62 -22.51,18.19 -20.29,18.76 -18.08,19.33 -15.24,18.28 -12.40,17.24 -10.54,15.85 -8.68,14.47 -6.23,10.19 -3.79,5.92 -2.70,3.72 -1.61,1.51 -1.25,0.85 -0.88,0.20 -0.78,0.04 -0.68,-0.11 -0.54,-0.23 -0.40,-0.36 -0.24,-0.45 -0.07,-0.55 0.10,-0.60 0.28,-0.64 0.47,-0.65 0.66,-0.65 0.84,-0.61 1.03,-0.57 1.20,-0.49 1.36,-0.41 1.51,-0.28 1.65,-0.16 1.76,-0.01 1.87,0.13 1.94,0.31 2.02,0.48 2.04,0.67 2.07,0.85 2.05,1.04 2.03,1.23 1.97,1.41 1.91,1.58 2.07,3.71 2.23,5.84 1.96,10.13 1.70,14.43 1.53,17.44 1.36,20.44 2.87,21.78 4.39,23.13 6.18,23.41 7.97,23.69 8.19,23.79 8.42,23.89 8.60,24.06 8.78,24.23 8.90,24.44 9.02,24.66 9.06,24.91 9.11,25.15 9.07,25.39 9.03,25.64 8.92,25.86 8.81,26.08 8.63,26.25 8.45,26.42 8.23,26.53 8.00,26.64 7.76,26.67 7.51,26.70 7.27,26.65 7.03,26.60 6.81,26.47 6.60,26.35 6.44,26.16 6.27,25.97 6.18,25.74 6.08,25.52 6.07,25.27 6.05,25.02 6.12,24.78 6.18,24.54 6.32,24.34 6.45,24.13 6.65,23.98 6.84,23.82 7.08,23.74 7.31,23.66 7.56,23.66 7.80,23.65 8.04,23.73 8.28,23.81 8.48,23.95 8.67,24.10 8.82,24.31 8.96,24.51 9.03,24.75 9.10,24.98 9.08,25.23 9.07,25.48 8.99,25.71 8.90,25.94 8.74,26.13 8.58,26.32 8.37,26.45 8.16,26.58 7.92,26.64 7.68,26.70 7.43,26.67 7.18,26.65 7.18,26.65 7.18,26.65 4.94,25.86 2.69,25.08 0.83,23.02 -1.03,20.97 -0.97,17.62 -0.92,14.27 -0.66,10.16 -0.40,6.04 -0.64,3.12 -0.88,0.20 -0.78,0.04 -0.68,-0.11 -0.54,-0.23 -0.40,-0.36 -0.24,-0.45 -0.07,-0.55 0.10,-0.60 0.28,-0.64 0.47,-0.65 0.66,-0.65 0.84,-0.61 1.03,-0.57 1.19,-0.49 1.36,-0.41 1.51,-0.28 1.65,-0.16 1.76,-0.01 1.87,0.13 1.94,0.31 2.01,0.48 2.04,0.67 2.07,0.85 2.05,1.04 2.03,1.23 1.97,1.41 1.91,1.58 1.33,2.14 0.75,2.69 -0.37,4.98 -1.50,7.26 -4.27,11.91 -7.05,16.56 -9.28,18.16 -11.52,19.76 -15.04,20.84 -18.56,21.91 -21.51,20.92 -24.45,19.93 -25.78,17.84 -27.12,15.75 -28.16,11.06 -29.20,6.36 -27.32,3.19 -25.45,0.01 -22.32,-0.95 -19.18,-1.91 -14.82,-2.23 -10.45,-2.56 -6.80,-2.44 -3.15,-2.33 -1.42,-1.94 0.31,-1.55 0.49,-1.49 0.67,-1.43 0.83,-1.33 1.00,-1.23 1.13,-1.09 1.26,-0.96 1.36,-0.79 1.46,-0.62 1.51,-0.44 1.56,-0.26 1.57,-0.06 1.58,0.12 1.54,0.30 1.51,0.49 1.42,0.67 1.34,0.84 1.22,0.99 1.10,1.14 0.95,1.25 0.80,1.37 0.62,1.44 0.44,1.52 0.25,1.55 0.07,1.58 -0.12,1.57 -0.31,1.55 -0.31,1.55 L -0.31,1.55 Z"></path></g><g transform="translate(646.7172727772283 271.998798451628) rotate(0 2.419814224848267 24.198280712155423)" stroke="none"><path fill="#1e1e1e" d="M 1.97,0.21 Q 1.97,0.21 1.53,3.33 1.09,6.45 1.58,11.07 2.06,15.69 2.59,20.16 3.12,24.63 3.68,30.03 4.24,35.43 4.80,39.05 5.36,42.66 6.89,43.08 8.42,43.50 8.43,43.69 8.44,43.88 8.40,44.07 8.36,44.25 8.28,44.42 8.20,44.59 8.08,44.74 7.96,44.89 7.81,45.00 7.66,45.12 7.49,45.19 7.31,45.26 7.13,45.29 6.94,45.32 6.75,45.31 6.56,45.29 6.38,45.23 6.20,45.17 6.04,45.07 5.88,44.97 5.75,44.84 5.62,44.70 5.53,44.54 5.43,44.37 5.38,44.19 5.33,44.01 5.97,43.11 6.61,42.21 6.86,42.21 7.12,42.21 7.36,42.29 7.60,42.37 7.80,42.52 8.00,42.67 8.15,42.88 8.29,43.09 8.36,43.33 8.43,43.57 8.42,43.83 8.41,44.08 8.32,44.32 8.23,44.55 8.06,44.75 7.90,44.94 7.68,45.08 7.47,45.21 7.22,45.27 6.97,45.32 6.72,45.30 6.47,45.27 6.24,45.17 6.01,45.06 5.82,44.89 5.63,44.72 5.51,44.49 5.39,44.27 5.35,44.02 5.31,43.77 5.35,43.52 5.38,43.27 5.50,43.04 5.62,42.82 5.80,42.64 5.98,42.47 6.21,42.36 6.44,42.25 6.69,42.22 6.95,42.19 7.20,42.24 7.44,42.30 7.66,42.42 7.88,42.55 8.05,42.75 8.21,42.94 8.31,43.17 8.40,43.41 8.42,43.66 8.44,43.91 8.37,44.16 8.30,44.40 8.16,44.62 8.02,44.83 7.82,44.98 7.62,45.14 8.02,44.32 8.42,43.50 8.43,43.69 8.44,43.88 8.40,44.07 8.36,44.25 8.28,44.42 8.20,44.59 8.08,44.74 7.96,44.89 7.81,45.00 7.66,45.12 7.49,45.19 7.31,45.26 7.13,45.29 6.94,45.32 6.75,45.31 6.56,45.29 6.38,45.23 6.20,45.17 6.04,45.07 5.88,44.97 5.75,44.84 5.62,44.70 5.53,44.54 5.43,44.37 5.38,44.19 5.33,44.01 3.93,43.63 2.54,43.25 1.89,39.50 1.25,35.76 0.62,30.40 -0.00,25.03 -0.63,20.55 -1.26,16.06 -1.87,11.07 -2.48,6.07 -2.23,2.92 -1.97,-0.21 -1.91,-0.45 -1.86,-0.68 -1.75,-0.89 -1.64,-1.11 -1.48,-1.29 -1.33,-1.47 -1.13,-1.61 -0.94,-1.74 -0.71,-1.83 -0.49,-1.92 -0.25,-1.95 -0.02,-1.98 0.21,-1.95 0.45,-1.93 0.68,-1.84 0.90,-1.76 1.10,-1.63 1.30,-1.49 1.46,-1.32 1.62,-1.14 1.73,-0.93 1.84,-0.72 1.90,-0.49 1.96,-0.25 1.97,-0.01 1.97,0.21 1.97,0.21 L 1.97,0.21 Z"></path></g><g transform="translate(662.446146009218 265.94922827358914) rotate(0 3.0247850890194172 28.432984452238372)" stroke="none"><path fill="#1e1e1e" d="M 1.86,-0.53 Q 1.86,-0.53 2.47,1.92 3.09,4.38 3.68,7.21 4.28,10.05 4.53,15.19 4.77,20.34 4.86,25.62 4.94,30.91 4.97,36.98 4.99,43.05 5.34,46.96 5.69,50.87 6.51,51.03 7.33,51.18 7.33,51.37 7.32,51.56 7.27,51.74 7.22,51.92 7.13,52.08 7.04,52.25 6.91,52.39 6.78,52.52 6.63,52.62 6.47,52.73 6.29,52.79 6.11,52.85 5.93,52.87 5.74,52.88 5.55,52.86 5.37,52.83 5.20,52.76 5.02,52.69 4.87,52.57 4.72,52.46 4.60,52.32 4.48,52.18 4.40,52.01 4.31,51.84 4.27,51.66 4.23,51.47 4.46,50.85 4.69,50.22 4.90,50.07 5.10,49.93 5.34,49.86 5.58,49.78 5.84,49.79 6.09,49.80 6.32,49.89 6.56,49.98 6.75,50.14 6.95,50.30 7.08,50.51 7.22,50.72 7.28,50.97 7.34,51.21 7.31,51.46 7.29,51.71 7.19,51.94 7.09,52.18 6.92,52.36 6.75,52.55 6.53,52.67 6.31,52.79 6.06,52.84 5.82,52.88 5.57,52.85 5.32,52.81 5.09,52.70 4.87,52.59 4.69,52.41 4.51,52.23 4.40,52.00 4.29,51.78 4.26,51.53 4.23,51.28 4.28,51.03 4.33,50.78 4.45,50.56 4.58,50.34 4.77,50.18 4.95,50.01 5.19,49.91 5.42,49.81 5.67,49.80 5.92,49.78 6.16,49.84 6.41,49.90 6.62,50.04 6.83,50.18 6.99,50.37 7.14,50.57 7.23,50.81 7.32,51.04 7.32,51.30 7.33,51.55 7.25,51.79 7.17,52.03 7.25,51.61 7.33,51.18 7.33,51.37 7.32,51.56 7.27,51.74 7.22,51.92 7.13,52.08 7.04,52.25 6.91,52.39 6.78,52.52 6.63,52.62 6.47,52.73 6.29,52.79 6.11,52.85 5.93,52.87 5.74,52.88 5.55,52.86 5.37,52.83 5.20,52.76 5.02,52.69 4.87,52.58 4.72,52.46 4.60,52.32 4.48,52.18 4.40,52.01 4.31,51.84 4.27,51.66 4.23,51.47 3.56,51.30 2.89,51.13 2.50,47.10 2.11,43.07 2.04,37.02 1.96,30.97 1.82,25.74 1.67,20.51 1.37,15.64 1.07,10.78 0.38,8.07 -0.31,5.35 -1.08,2.94 -1.86,0.53 -1.89,0.30 -1.93,0.07 -1.91,-0.16 -1.89,-0.39 -1.82,-0.61 -1.74,-0.83 -1.62,-1.03 -1.49,-1.23 -1.32,-1.39 -1.15,-1.55 -0.95,-1.66 -0.75,-1.78 -0.52,-1.84 -0.30,-1.91 -0.07,-1.92 0.16,-1.93 0.39,-1.88 0.62,-1.83 0.83,-1.73 1.04,-1.63 1.22,-1.48 1.40,-1.33 1.54,-1.14 1.68,-0.96 1.77,-0.74 1.86,-0.53 1.86,-0.53 L 1.86,-0.53 Z"></path></g><g transform="translate(686.6444267213733 284.0979388077057) rotate(0 10.284273918121812 33.272635979213675)" stroke="none"><path fill="#1e1e1e" d="M 1.66,0.30 Q 1.66,0.30 0.91,4.11 0.17,7.93 -0.15,10.53 -0.48,13.12 0.38,16.42 1.24,19.72 1.88,21.19 2.53,22.66 6.77,20.64 11.01,18.61 13.46,16.82 15.91,15.03 17.18,12.69 18.46,10.35 19.02,8.40 19.57,6.45 19.39,5.84 19.21,5.23 19.28,5.06 19.36,4.88 19.47,4.74 19.58,4.59 19.72,4.47 19.87,4.35 20.04,4.27 20.20,4.19 20.39,4.16 20.57,4.12 20.75,4.13 20.94,4.13 21.12,4.18 21.30,4.24 21.46,4.33 21.62,4.42 21.75,4.55 21.89,4.68 21.99,4.84 22.08,4.99 22.14,5.17 22.20,5.35 22.22,5.53 22.23,5.72 22.20,5.90 22.17,6.08 21.80,7.28 21.43,8.47 20.91,10.94 20.39,13.41 20.15,18.57 19.92,23.72 20.50,28.27 21.08,32.83 22.01,38.62 22.95,44.42 23.00,48.39 23.06,52.36 21.97,55.99 20.88,59.62 18.14,62.04 15.39,64.45 11.91,65.13 8.43,65.81 3.70,64.25 -1.03,62.68 -1.25,62.55 -1.47,62.43 -1.63,62.24 -1.80,62.05 -1.90,61.82 -2.00,61.58 -2.02,61.33 -2.04,61.08 -1.97,60.83 -1.91,60.59 -1.77,60.38 -1.64,60.16 -1.44,60.01 -1.24,59.85 -1.00,59.76 -0.76,59.68 -0.51,59.67 -0.26,59.67 -0.02,59.74 0.21,59.82 0.42,59.97 0.62,60.12 0.77,60.32 0.92,60.53 0.99,60.77 1.06,61.01 1.05,61.27 1.05,61.52 0.96,61.76 0.87,61.99 0.71,62.19 0.55,62.39 0.33,62.52 0.12,62.66 -0.12,62.72 -0.36,62.78 -0.61,62.75 -0.87,62.73 -1.10,62.63 -1.33,62.53 -1.52,62.36 -1.70,62.19 -1.83,61.97 -1.95,61.75 -2.00,61.50 -2.04,61.25 -2.01,61.00 -1.97,60.75 -1.86,60.52 -1.74,60.30 -1.56,60.12 -1.38,59.94 -1.16,59.83 -0.93,59.72 -0.68,59.69 -0.43,59.65 -0.18,59.70 0.06,59.75 0.06,59.75 0.06,59.75 4.11,61.48 8.16,63.20 10.99,62.76 13.83,62.32 16.13,60.48 18.42,58.63 19.37,55.50 20.32,52.36 20.26,48.61 20.20,44.86 19.23,39.03 18.26,33.19 17.63,28.40 17.01,23.61 17.21,18.22 17.41,12.83 17.91,10.15 18.41,7.47 18.81,6.35 19.21,5.23 19.28,5.06 19.36,4.88 19.47,4.74 19.58,4.59 19.72,4.47 19.87,4.35 20.04,4.27 20.20,4.19 20.38,4.16 20.57,4.12 20.75,4.13 20.94,4.13 21.12,4.18 21.30,4.24 21.46,4.33 21.62,4.42 21.75,4.55 21.89,4.68 21.99,4.84 22.08,4.99 22.14,5.17 22.20,5.35 22.22,5.53 22.23,5.72 22.20,5.90 22.17,6.08 22.17,6.58 22.16,7.08 21.49,9.38 20.82,11.67 19.20,14.42 17.59,17.16 14.88,19.15 12.16,21.14 7.53,23.10 2.90,25.05 0.68,22.79 -1.53,20.53 -2.51,16.69 -3.48,12.86 -3.21,10.11 -2.95,7.36 -2.30,3.53 -1.66,-0.30 -1.60,-0.49 -1.54,-0.69 -1.43,-0.86 -1.33,-1.04 -1.18,-1.18 -1.04,-1.32 -0.86,-1.43 -0.69,-1.53 -0.50,-1.60 -0.30,-1.66 -0.10,-1.67 0.09,-1.68 0.30,-1.65 0.50,-1.61 0.68,-1.53 0.87,-1.44 1.03,-1.32 1.19,-1.19 1.31,-1.03 1.44,-0.87 1.52,-0.69 1.61,-0.50 1.64,-0.30 1.68,-0.10 1.67,0.09 1.66,0.30 1.66,0.30 L 1.66,0.30 Z"></path></g><g transform="translate(938.0040630034318 261.10959982389267) rotate(0 -12.099128817438327 41.137072595208394)" stroke="none"><path fill="#1e1e1e" d="M 1.48,-0.49 Q 1.48,-0.49 3.18,4.73 4.89,9.96 5.98,16.11 7.07,22.26 7.52,29.09 7.98,35.91 7.11,45.16 6.25,54.41 3.03,61.63 -0.17,68.86 -4.11,73.08 -8.05,77.30 -13.46,78.82 -18.88,80.34 -22.93,78.99 -26.97,77.64 -28.38,73.76 -29.79,69.88 -30.37,68.37 -30.95,66.86 -30.99,66.62 -31.03,66.37 -30.98,66.13 -30.94,65.89 -30.82,65.68 -30.70,65.46 -30.52,65.30 -30.34,65.13 -30.12,65.03 -29.90,64.93 -29.65,64.91 -29.41,64.89 -29.17,64.94 -28.93,65.00 -28.72,65.13 -28.52,65.26 -28.36,65.45 -28.21,65.64 -28.12,65.87 -28.03,66.09 -28.02,66.34 -28.01,66.58 -28.08,66.82 -28.15,67.05 -28.29,67.25 -28.43,67.45 -28.63,67.60 -28.82,67.74 -29.06,67.82 -29.29,67.89 -29.54,67.89 -29.78,67.89 -30.01,67.80 -30.24,67.72 -30.43,67.57 -30.63,67.42 -30.76,67.22 -30.90,67.01 -30.96,66.77 -31.02,66.54 -31.00,66.29 -30.99,66.05 -30.89,65.82 -30.80,65.60 -30.64,65.41 -30.48,65.23 -30.26,65.11 -30.05,64.98 -29.81,64.93 -29.57,64.89 -29.33,64.92 -29.09,64.95 -28.87,65.05 -28.65,65.16 -28.47,65.33 -28.29,65.50 -28.18,65.72 -28.07,65.94 -28.07,65.94 -28.07,65.94 -27.67,67.50 -27.26,69.07 -26.35,72.44 -25.44,75.81 -22.38,76.79 -19.32,77.76 -14.58,76.55 -9.83,75.34 -6.23,71.52 -2.63,67.70 0.43,60.90 3.51,54.11 4.34,45.10 5.17,36.10 4.70,29.44 4.23,22.77 3.14,16.84 2.06,10.90 0.28,5.69 -1.48,0.49 -1.51,0.30 -1.55,0.12 -1.54,-0.06 -1.54,-0.25 -1.48,-0.43 -1.43,-0.61 -1.34,-0.77 -1.24,-0.93 -1.11,-1.07 -0.98,-1.21 -0.82,-1.31 -0.66,-1.41 -0.49,-1.47 -0.31,-1.53 -0.12,-1.54 0.06,-1.56 0.24,-1.53 0.43,-1.50 0.60,-1.42 0.78,-1.35 0.93,-1.23 1.08,-1.12 1.20,-0.98 1.32,-0.83 1.40,-0.66 1.48,-0.49 1.48,-0.49 L 1.48,-0.49 Z"></path></g><g transform="translate(968.2519138936261 297.40702089212573) rotate(0 2.419837302127064 16.333844096160675)" stroke="none"><path fill="#1e1e1e" d="M 2.11,0 Q 2.11,0 2.01,4.17 1.90,8.34 2.51,13.84 3.12,19.33 3.70,23.07 4.28,26.81 4.94,28.41 5.61,30.00 5.62,30.21 5.63,30.42 5.59,30.62 5.55,30.82 5.46,31.01 5.37,31.20 5.24,31.36 5.11,31.52 4.95,31.65 4.79,31.77 4.60,31.86 4.41,31.94 4.20,31.97 4.00,32.01 3.79,31.99 3.59,31.98 3.39,31.91 3.19,31.85 3.02,31.74 2.84,31.63 2.70,31.48 2.55,31.33 2.45,31.16 2.34,30.98 2.28,30.78 2.22,30.58 2.53,28.28 2.84,25.98 2.92,25.67 3.00,25.37 3.17,25.11 3.34,24.85 3.59,24.66 3.84,24.46 4.13,24.36 4.42,24.26 4.74,24.25 5.05,24.25 5.35,24.34 5.64,24.44 5.89,24.62 6.15,24.81 6.32,25.06 6.50,25.32 6.59,25.62 6.68,25.92 6.67,26.23 6.65,26.54 6.54,26.83 6.43,27.13 6.23,27.37 6.04,27.61 5.77,27.77 5.50,27.94 5.20,28.01 4.90,28.08 4.59,28.05 4.28,28.02 3.99,27.90 3.70,27.77 3.48,27.56 3.25,27.35 3.09,27.07 2.94,26.80 2.89,26.49 2.83,26.18 2.88,25.88 2.93,25.57 3.07,25.29 3.21,25.01 3.43,24.79 3.66,24.57 3.94,24.44 4.22,24.30 4.53,24.27 4.84,24.23 5.15,24.29 5.45,24.35 5.72,24.51 5.99,24.67 6.20,24.90 6.40,25.14 6.52,25.42 6.64,25.71 6.66,26.02 6.69,26.34 6.69,26.34 6.69,26.34 6.15,28.17 5.61,30.00 5.62,30.21 5.63,30.42 5.59,30.62 5.55,30.82 5.46,31.01 5.37,31.20 5.24,31.36 5.11,31.52 4.95,31.65 4.79,31.77 4.60,31.86 4.41,31.94 4.20,31.97 4.00,32.01 3.79,31.99 3.59,31.98 3.39,31.91 3.19,31.85 3.02,31.74 2.84,31.63 2.70,31.48 2.55,31.33 2.45,31.16 2.34,30.98 2.28,30.78 2.22,30.58 1.65,28.97 1.07,27.37 0.36,23.56 -0.34,19.76 -1.12,14.05 -1.90,8.35 -2.01,4.17 -2.11,0 -2.08,-0.25 -2.05,-0.50 -1.96,-0.74 -1.87,-0.98 -1.72,-1.19 -1.58,-1.40 -1.39,-1.57 -1.20,-1.74 -0.97,-1.86 -0.75,-1.97 -0.50,-2.04 -0.25,-2.10 0.00,-2.10 0.25,-2.10 0.50,-2.04 0.75,-1.97 0.97,-1.86 1.20,-1.74 1.39,-1.57 1.58,-1.40 1.72,-1.19 1.87,-0.98 1.96,-0.74 2.05,-0.50 2.08,-0.25 2.11,0.00 2.11,0.00 L 2.11,0 Z"></path></g><g transform="translate(958.5726108396755 275.6285774820974) rotate(0 1.209918651063532 -0.6049708641711788)" stroke="none"><path fill="#1e1e1e" d="M -1.02,-2.04 Q -1.02,-2.04 -0.35,-2.44 0.31,-2.85 0.68,-2.96 1.05,-3.08 1.44,-3.07 1.83,-3.06 2.20,-2.92 2.57,-2.79 2.87,-2.55 3.17,-2.31 3.39,-1.98 3.60,-1.65 3.69,-1.27 3.79,-0.89 3.76,-0.51 3.73,-0.12 3.57,0.23 3.42,0.59 3.16,0.88 2.90,1.17 2.56,1.36 2.22,1.56 1.84,1.63 1.46,1.71 1.07,1.66 0.69,1.60 0.34,1.43 -0.00,1.26 -0.28,0.99 -0.56,0.71 -0.73,0.36 -0.90,0.01 -0.96,-0.36 -1.01,-0.75 -0.94,-1.13 -0.87,-1.51 -0.68,-1.85 -0.49,-2.19 -0.20,-2.46 0.08,-2.72 0.44,-2.87 0.80,-3.03 1.19,-3.06 1.57,-3.09 1.95,-3.00 2.33,-2.91 2.66,-2.70 2.99,-2.49 3.23,-2.19 3.48,-1.88 3.62,-1.52 3.75,-1.15 3.76,-0.76 3.77,-0.37 3.66,-0.00 3.55,0.36 3.32,0.68 3.09,1.00 2.78,1.23 2.46,1.45 2.46,1.45 2.46,1.45 1.74,1.75 1.02,2.04 0.76,2.13 0.50,2.23 0.22,2.25 -0.04,2.28 -0.31,2.24 -0.59,2.20 -0.84,2.10 -1.10,2.00 -1.32,1.84 -1.54,1.68 -1.72,1.47 -1.90,1.26 -2.03,1.01 -2.15,0.76 -2.21,0.49 -2.27,0.23 -2.26,-0.04 -2.26,-0.32 -2.19,-0.58 -2.12,-0.85 -1.98,-1.09 -1.85,-1.33 -1.66,-1.53 -1.48,-1.74 -1.25,-1.89 -1.02,-2.04 -1.02,-2.04 L -1.02,-2.04 Z"></path></g><g transform="translate(986.4006244277425 291.3574507140869) rotate(0 35.08751395580899 11.494169491906518)" stroke="none"><path fill="#1e1e1e" d="M 1.29,-1.00 Q 1.29,-1.00 3.69,2.15 6.09,5.31 7.87,8.87 9.65,12.43 10.77,16.82 11.89,21.21 12.34,23.74 12.79,26.28 13.06,26.64 13.34,27.00 13.35,27.19 13.36,27.38 13.33,27.56 13.30,27.75 13.22,27.92 13.14,28.09 13.03,28.24 12.91,28.39 12.76,28.50 12.61,28.62 12.44,28.70 12.27,28.77 12.09,28.81 11.90,28.84 11.71,28.83 11.53,28.82 11.35,28.76 11.17,28.71 11.00,28.61 10.84,28.51 10.71,28.38 10.58,28.25 10.48,28.09 10.38,27.93 10.33,27.75 10.27,27.57 10.78,23.67 11.30,19.78 12.19,14.36 13.09,8.93 15.29,4.35 17.49,-0.23 20.38,-2.33 23.27,-4.43 26.01,-4.48 28.75,-4.54 30.67,-1.98 32.59,0.56 33.70,3.83 34.81,7.10 34.93,11.74 35.06,16.38 34.74,19.40 34.43,22.41 34.42,23.33 34.42,24.24 34.38,24.42 34.33,24.61 34.25,24.78 34.16,24.95 34.04,25.09 33.92,25.23 33.76,25.34 33.61,25.45 33.43,25.52 33.26,25.59 33.07,25.62 32.88,25.64 32.69,25.62 32.51,25.60 32.33,25.54 32.15,25.48 31.99,25.37 31.83,25.27 31.71,25.13 31.58,24.99 31.49,24.82 31.40,24.65 31.35,24.47 31.30,24.29 31.30,24.10 31.29,23.91 32.46,22.20 33.63,20.48 36.47,15.80 39.31,11.11 44.10,5.86 48.89,0.61 52.42,-2.01 55.95,-4.64 59.29,-5.05 62.63,-5.46 64.90,-3.38 67.16,-1.29 68.11,1.86 69.06,5.02 69.75,7.66 70.44,10.29 70.99,12.92 71.54,15.54 71.54,15.80 71.54,16.05 71.45,16.29 71.37,16.53 71.22,16.74 71.06,16.94 70.85,17.08 70.64,17.22 70.40,17.29 70.15,17.36 69.90,17.34 69.65,17.33 69.41,17.23 69.17,17.14 68.98,16.97 68.79,16.81 68.66,16.59 68.53,16.37 68.47,16.13 68.42,15.88 68.45,15.62 68.47,15.37 68.58,15.14 68.69,14.91 68.86,14.73 69.04,14.54 69.26,14.42 69.49,14.31 69.74,14.27 69.99,14.22 70.24,14.27 70.49,14.31 70.71,14.43 70.94,14.55 71.11,14.73 71.29,14.92 71.39,15.15 71.50,15.38 71.53,15.63 71.55,15.88 71.50,16.13 71.44,16.38 71.31,16.60 71.18,16.81 70.99,16.98 70.79,17.14 70.56,17.24 70.32,17.33 70.07,17.34 69.81,17.36 69.57,17.29 69.32,17.22 69.11,17.08 68.90,16.93 68.75,16.73 68.60,16.53 68.52,16.29 68.44,16.05 68.44,16.05 68.44,16.05 68.15,13.51 67.86,10.97 67.17,8.35 66.48,5.74 65.81,3.09 65.15,0.44 63.61,-1.31 62.08,-3.08 59.76,-2.72 57.44,-2.37 54.20,0.07 50.96,2.51 46.37,7.56 41.77,12.60 38.91,17.42 36.04,22.24 35.23,23.24 34.42,24.24 34.38,24.42 34.33,24.61 34.25,24.78 34.16,24.95 34.04,25.09 33.92,25.23 33.76,25.34 33.61,25.45 33.43,25.52 33.26,25.59 33.07,25.62 32.88,25.64 32.69,25.62 32.51,25.60 32.33,25.54 32.15,25.48 31.99,25.37 31.83,25.27 31.71,25.13 31.58,24.99 31.49,24.82 31.40,24.65 31.35,24.47 31.30,24.29 31.30,24.10 31.29,23.91 31.55,23.02 31.81,22.14 32.11,19.28 32.42,16.43 32.36,12.17 32.30,7.90 31.34,4.96 30.38,2.02 29.07,-0.20 27.76,-2.43 26.17,-2.30 24.58,-2.16 22.20,-0.54 19.81,1.07 17.79,5.23 15.76,9.40 14.90,14.75 14.04,20.10 13.69,23.55 13.34,27.00 13.35,27.19 13.36,27.38 13.33,27.56 13.30,27.75 13.22,27.92 13.14,28.09 13.03,28.24 12.91,28.39 12.76,28.50 12.61,28.62 12.44,28.70 12.27,28.77 12.09,28.81 11.90,28.84 11.71,28.83 11.53,28.82 11.35,28.76 11.17,28.71 11.00,28.61 10.84,28.51 10.71,28.38 10.58,28.25 10.48,28.09 10.38,27.93 10.33,27.75 10.27,27.57 10.15,27.20 10.04,26.83 9.57,24.37 9.10,21.92 8.05,17.84 7.00,13.76 5.32,10.48 3.64,7.20 1.17,4.10 -1.29,1.00 -1.39,0.83 -1.49,0.66 -1.55,0.47 -1.61,0.28 -1.62,0.09 -1.63,-0.10 -1.59,-0.29 -1.56,-0.49 -1.48,-0.67 -1.39,-0.85 -1.27,-1.00 -1.15,-1.16 -0.99,-1.28 -0.84,-1.40 -0.66,-1.48 -0.48,-1.56 -0.28,-1.60 -0.09,-1.63 0.10,-1.62 0.30,-1.61 0.48,-1.55 0.67,-1.49 0.84,-1.38 1.01,-1.28 1.15,-1.14 1.29,-1.00 1.29,-1.00 L 1.29,-1.00 Z"></path></g><g transform="translate(39.037943777770124 546.6492937655032) rotate(0 -7.259483059782667 33.2726359792137)" stroke="none"><path fill="#1e1e1e" d="M -1.56,0.39 Q -1.56,0.39 -1.78,-0.73 -2.00,-1.86 -3.88,-2.49 -5.76,-3.12 -8.77,-3.19 -11.79,-3.25 -15.97,-0.33 -20.14,2.58 -22.22,7.68 -24.30,12.79 -22.86,17.49 -21.42,22.20 -18.24,25.13 -15.06,28.06 -9.03,29.29 -2.99,30.52 2.21,31.85 7.42,33.19 9.59,35.97 11.75,38.74 10.83,41.81 9.91,44.87 4.50,50.75 -0.90,56.64 -6.33,61.19 -11.77,65.75 -14.40,68.00 -17.02,70.25 -17.71,70.96 -18.40,71.67 -18.56,71.78 -18.71,71.88 -18.89,71.95 -19.07,72.01 -19.26,72.03 -19.45,72.05 -19.64,72.03 -19.83,72.00 -20.00,71.93 -20.18,71.86 -20.33,71.75 -20.49,71.64 -20.61,71.49 -20.74,71.35 -20.82,71.18 -20.91,71.01 -20.95,70.83 -20.99,70.64 -20.99,70.45 -20.99,70.26 -20.94,70.08 -20.89,69.89 -20.80,69.73 -20.71,69.56 -20.58,69.42 -20.45,69.28 -18.30,67.24 -16.16,65.21 -13.48,62.31 -10.80,59.41 -10.60,59.26 -10.39,59.11 -10.15,59.04 -9.91,58.96 -9.65,58.96 -9.40,58.97 -9.16,59.06 -8.92,59.14 -8.72,59.30 -8.52,59.46 -8.38,59.67 -8.24,59.88 -8.18,60.13 -8.12,60.38 -8.13,60.63 -8.15,60.89 -8.25,61.12 -8.35,61.36 -8.52,61.55 -8.69,61.74 -8.91,61.86 -9.13,61.99 -9.38,62.04 -9.63,62.09 -9.88,62.06 -10.13,62.02 -10.36,61.91 -10.59,61.80 -10.77,61.62 -10.95,61.44 -11.07,61.22 -11.18,60.99 -11.22,60.74 -11.26,60.49 -11.21,60.24 -11.16,59.98 -11.04,59.76 -10.92,59.54 -10.73,59.37 -10.54,59.20 -10.31,59.09 -10.07,58.99 -9.82,58.97 -9.57,58.95 -9.32,59.01 -9.07,59.07 -8.86,59.20 -8.64,59.34 -8.48,59.54 -8.32,59.73 -8.23,59.97 -8.14,60.21 -8.13,60.46 -8.12,60.72 -8.19,60.96 -8.27,61.21 -8.41,61.41 -8.56,61.62 -8.56,61.62 -8.56,61.62 -11.41,64.33 -14.26,67.04 -16.33,69.36 -18.40,71.67 -18.55,71.78 -18.71,71.88 -18.89,71.95 -19.07,72.01 -19.26,72.03 -19.45,72.05 -19.64,72.03 -19.83,72.00 -20.00,71.93 -20.18,71.86 -20.33,71.75 -20.49,71.64 -20.61,71.49 -20.74,71.35 -20.82,71.18 -20.91,71.01 -20.95,70.83 -20.99,70.64 -20.99,70.45 -20.99,70.26 -20.94,70.08 -20.89,69.89 -20.80,69.73 -20.71,69.56 -20.58,69.42 -20.45,69.28 -19.60,68.76 -18.74,68.25 -16.11,65.98 -13.47,63.72 -8.15,59.27 -2.84,54.83 2.30,49.37 7.44,43.90 8.45,41.55 9.45,39.20 7.96,37.41 6.47,35.62 1.44,34.40 -3.57,33.18 -10.17,31.68 -16.77,30.17 -20.40,26.66 -24.02,23.15 -25.51,17.62 -26.99,12.09 -24.49,6.21 -22.00,0.32 -17.03,-2.97 -12.07,-6.27 -8.32,-6.23 -4.57,-6.19 -1.97,-4.94 0.61,-3.69 1.08,-2.04 1.56,-0.39 1.58,-0.19 1.60,-0.00 1.58,0.18 1.56,0.37 1.49,0.56 1.42,0.74 1.31,0.90 1.20,1.06 1.06,1.19 0.91,1.32 0.74,1.41 0.57,1.50 0.38,1.54 0.19,1.59 0.00,1.59 -0.18,1.59 -0.37,1.55 -0.56,1.50 -0.73,1.41 -0.90,1.32 -1.05,1.19 -1.20,1.07 -1.31,0.91 -1.42,0.75 -1.49,0.57 -1.56,0.39 -1.56,0.39 L -1.56,0.39 Z"></path></g><g transform="translate(83.80477232616909 564.7980042996198) rotate(0 31.45775800261839 12.704088142970079)" stroke="none"><path fill="#1e1e1e" d="M -1.00,1.33 Q -1.00,1.33 -2.32,0.35 -3.65,-0.63 -5.74,-0.71 -7.83,-0.78 -10.65,2.06 -13.46,4.91 -15.37,12.17 -17.29,19.43 -17.51,22.71 -17.74,25.99 -16.10,25.41 -14.47,24.82 -12.85,21.76 -11.23,18.70 -10.14,15.67 -9.05,12.64 -7.82,9.83 -6.59,7.02 -4.99,10.69 -3.38,14.36 -2.39,17.38 -1.39,20.41 -0.27,23.80 0.83,27.20 1.56,28.67 2.29,30.14 4.12,29.80 5.96,29.45 8.33,26.38 10.71,23.31 12.47,19.63 14.22,15.95 16.05,12.23 17.88,8.52 19.21,6.44 20.54,4.35 22.47,4.49 24.41,4.62 24.86,6.34 25.31,8.05 25.43,11.34 25.54,14.62 25.57,17.37 25.60,20.12 25.60,23.03 25.60,25.94 25.70,27.52 25.79,29.10 25.77,29.30 25.75,29.49 25.68,29.67 25.62,29.86 25.51,30.02 25.40,30.18 25.25,30.31 25.11,30.44 24.94,30.53 24.76,30.62 24.58,30.67 24.39,30.72 24.19,30.72 24.00,30.72 23.81,30.68 23.62,30.64 23.44,30.55 23.27,30.46 23.12,30.33 22.97,30.20 22.86,30.04 22.75,29.88 22.68,29.70 22.61,29.52 22.58,29.32 22.56,29.13 23.86,26.72 25.17,24.31 26.96,20.60 28.76,16.90 31.30,12.83 33.85,8.77 37.14,5.88 40.42,2.99 43.07,1.73 45.72,0.47 48.36,1.21 51.00,1.96 52.12,5.22 53.23,8.48 53.62,12.31 54.01,16.15 53.82,19.12 53.62,22.09 53.62,22.25 53.62,22.41 53.58,22.56 53.53,22.72 53.46,22.86 53.38,23.00 53.27,23.12 53.16,23.23 53.03,23.32 52.89,23.41 52.74,23.46 52.59,23.52 52.43,23.53 52.27,23.55 52.12,23.53 51.96,23.50 51.81,23.44 51.66,23.38 51.53,23.29 51.40,23.20 51.30,23.07 51.19,22.95 51.12,22.81 51.05,22.67 51.02,22.51 50.98,22.35 52.74,18.17 54.51,14.00 56.58,10.11 58.65,6.23 61.32,2.43 63.99,-1.36 67.39,-3.80 70.79,-6.25 74.37,-6.55 77.95,-6.86 80.33,-4.72 82.71,-2.57 83.71,0.96 84.72,4.50 85.10,7.72 85.47,10.94 85.82,13.85 86.17,16.75 86.14,17.01 86.12,17.26 86.02,17.49 85.92,17.73 85.75,17.92 85.57,18.11 85.35,18.23 85.13,18.35 84.88,18.40 84.63,18.45 84.37,18.41 84.12,18.38 83.89,18.26 83.66,18.15 83.49,17.97 83.31,17.78 83.19,17.56 83.08,17.33 83.05,17.07 83.01,16.82 83.06,16.57 83.11,16.32 83.24,16.10 83.37,15.88 83.56,15.71 83.75,15.54 83.98,15.44 84.22,15.34 84.47,15.32 84.73,15.30 84.98,15.36 85.22,15.42 85.44,15.56 85.65,15.70 85.81,15.90 85.97,16.10 86.06,16.34 86.14,16.58 86.15,16.84 86.15,17.09 86.08,17.34 86.00,17.58 85.85,17.79 85.70,17.99 85.49,18.14 85.29,18.29 85.04,18.36 84.80,18.44 84.54,18.43 84.29,18.42 84.05,18.33 83.81,18.24 83.61,18.08 83.41,17.92 83.28,17.70 83.14,17.49 83.08,17.24 83.02,16.99 83.02,16.99 83.02,16.99 82.92,14.12 82.83,11.25 82.48,8.21 82.13,5.17 81.43,2.17 80.72,-0.83 79.08,-2.63 77.44,-4.42 74.82,-4.18 72.20,-3.94 69.22,-1.83 66.24,0.27 63.70,3.92 61.17,7.57 59.18,11.39 57.19,15.21 55.41,18.65 53.62,22.09 53.62,22.25 53.62,22.41 53.58,22.56 53.53,22.72 53.46,22.86 53.38,23.00 53.27,23.12 53.16,23.23 53.03,23.32 52.89,23.41 52.74,23.46 52.59,23.52 52.43,23.53 52.27,23.55 52.12,23.53 51.96,23.50 51.81,23.44 51.66,23.38 51.53,23.29 51.40,23.20 51.30,23.07 51.19,22.95 51.12,22.81 51.05,22.67 51.02,22.51 50.98,22.35 51.17,19.38 51.35,16.41 51.00,12.81 50.65,9.22 50.02,6.44 49.38,3.67 47.92,3.32 46.45,2.97 44.34,4.04 42.23,5.10 39.23,7.70 36.23,10.30 33.81,14.22 31.39,18.15 29.68,21.80 27.98,25.44 26.89,27.27 25.79,29.10 25.77,29.30 25.75,29.49 25.68,29.67 25.62,29.86 25.51,30.02 25.40,30.18 25.25,30.31 25.11,30.44 24.94,30.53 24.76,30.62 24.58,30.67 24.39,30.72 24.19,30.72 24.00,30.73 23.81,30.68 23.62,30.64 23.44,30.55 23.27,30.46 23.12,30.33 22.98,30.20 22.86,30.04 22.75,29.88 22.68,29.70 22.61,29.52 22.58,29.33 22.56,29.13 22.63,27.55 22.70,25.97 22.65,23.08 22.60,20.19 22.50,17.48 22.40,14.77 22.22,11.75 22.04,8.73 22.07,7.45 22.11,6.17 21.19,7.93 20.27,9.69 18.44,13.40 16.62,17.10 14.70,21.05 12.78,25.00 9.78,28.44 6.77,31.87 4.12,32.09 1.48,32.31 -0.14,30.20 -1.76,28.09 -2.91,24.70 -4.06,21.30 -5.12,18.18 -6.18,15.05 -6.54,12.37 -6.90,9.69 -6.62,11.64 -6.35,13.59 -7.49,16.85 -8.63,20.11 -10.63,23.68 -12.62,27.24 -14.52,28.53 -16.42,29.82 -18.43,28.09 -20.43,26.37 -20.29,22.51 -20.15,18.66 -17.93,10.77 -15.71,2.88 -12.07,-0.43 -8.44,-3.76 -5.17,-3.65 -1.91,-3.54 -0.45,-2.44 1.00,-1.33 1.14,-1.19 1.29,-1.05 1.40,-0.88 1.50,-0.71 1.57,-0.52 1.63,-0.33 1.65,-0.13 1.67,0.06 1.63,0.26 1.60,0.46 1.52,0.64 1.44,0.83 1.32,0.99 1.20,1.15 1.05,1.28 0.89,1.41 0.71,1.49 0.53,1.58 0.33,1.62 0.13,1.66 -0.06,1.65 -0.26,1.65 -0.46,1.59 -0.65,1.53 -0.82,1.43 -1.00,1.33 -1.00,1.33 L -1.00,1.33 Z"></path></g><g transform="translate(402.01215446010116 499.46267406953484) rotate(0 3.0247850890194172 42.95193903316428)" stroke="none"><path fill="#1e1e1e" d="M 1.81,0 Q 1.81,0 1.74,3.82 1.68,7.65 1.63,11.36 1.58,15.07 1.89,23.93 2.20,32.78 2.32,43.18 2.44,53.59 2.48,61.48 2.53,69.38 2.85,73.99 3.17,78.60 4.83,80.08 6.48,81.56 6.63,81.78 6.77,82.00 6.84,82.25 6.90,82.51 6.88,82.77 6.86,83.03 6.76,83.27 6.66,83.51 6.48,83.71 6.31,83.90 6.08,84.03 5.86,84.16 5.60,84.21 5.34,84.27 5.08,84.23 4.83,84.20 4.59,84.08 4.35,83.97 4.17,83.79 3.98,83.60 3.86,83.37 3.75,83.13 3.71,82.88 3.67,82.62 3.72,82.36 3.77,82.10 3.89,81.87 4.02,81.64 4.21,81.47 4.41,81.29 4.65,81.19 4.89,81.08 5.15,81.06 5.41,81.04 5.66,81.10 5.92,81.16 6.14,81.30 6.36,81.44 6.53,81.64 6.69,81.84 6.78,82.09 6.88,82.33 6.88,82.59 6.89,82.86 6.82,83.11 6.74,83.36 6.59,83.57 6.44,83.78 6.23,83.94 6.02,84.09 5.77,84.17 5.52,84.25 5.26,84.24 5.00,84.24 4.75,84.15 4.50,84.06 4.30,83.90 4.09,83.74 4.09,83.74 4.09,83.74 2.32,81.45 0.55,79.17 0.12,74.29 -0.29,69.40 -0.38,61.52 -0.46,53.63 -0.63,43.26 -0.81,32.90 -1.19,23.99 -1.58,15.07 -1.63,11.36 -1.68,7.65 -1.74,3.82 -1.81,0 -1.79,-0.21 -1.76,-0.43 -1.68,-0.63 -1.60,-0.84 -1.48,-1.02 -1.36,-1.20 -1.19,-1.35 -1.03,-1.49 -0.83,-1.59 -0.64,-1.69 -0.43,-1.75 -0.21,-1.80 0.00,-1.80 0.21,-1.80 0.43,-1.75 0.64,-1.69 0.83,-1.59 1.03,-1.49 1.19,-1.35 1.36,-1.20 1.48,-1.02 1.60,-0.84 1.68,-0.63 1.76,-0.43 1.79,-0.21 1.81,0.00 1.81,0.00 L 1.81,0 Z"></path></g><g transform="translate(443.14922705530955 499.46267406953484) rotate(0 1.209918651063532 34.48253155299838)" stroke="none"><path fill="#1e1e1e" d="M 1.79,0 Q 1.79,0 1.72,3.13 1.66,6.26 1.61,11.07 1.56,15.87 1.88,23.80 2.19,31.72 2.66,39.96 3.13,48.21 2.97,53.86 2.82,59.52 2.86,63.40 2.89,67.28 2.84,67.55 2.80,67.81 2.67,68.04 2.53,68.28 2.34,68.45 2.14,68.63 1.89,68.74 1.65,68.85 1.38,68.87 1.12,68.89 0.86,68.83 0.60,68.77 0.37,68.63 0.15,68.48 -0.01,68.28 -0.18,68.07 -0.28,67.82 -0.37,67.57 -0.38,67.30 -0.39,67.03 -0.31,66.78 -0.23,66.52 -0.08,66.30 0.07,66.09 0.28,65.93 0.50,65.77 0.75,65.69 1.01,65.61 1.28,65.62 1.54,65.62 1.80,65.71 2.05,65.81 2.26,65.97 2.46,66.14 2.61,66.36 2.76,66.59 2.82,66.85 2.89,67.10 2.87,67.37 2.85,67.64 2.74,67.88 2.64,68.13 2.46,68.33 2.28,68.53 2.05,68.66 1.82,68.80 1.56,68.85 1.30,68.90 1.03,68.86 0.77,68.83 0.53,68.71 0.29,68.59 0.10,68.41 -0.08,68.22 -0.20,67.98 -0.32,67.74 -0.36,67.48 -0.40,67.21 -0.40,67.21 -0.40,67.21 -0.20,63.33 0.00,59.45 0.12,53.91 0.24,48.38 -0.28,40.12 -0.80,31.85 -1.18,23.86 -1.56,15.87 -1.61,11.07 -1.66,6.26 -1.72,3.13 -1.79,0 -1.76,-0.21 -1.74,-0.42 -1.66,-0.63 -1.58,-0.83 -1.46,-1.01 -1.34,-1.19 -1.18,-1.33 -1.01,-1.47 -0.82,-1.57 -0.63,-1.67 -0.42,-1.73 -0.21,-1.78 0.00,-1.78 0.21,-1.78 0.42,-1.73 0.63,-1.67 0.82,-1.57 1.01,-1.47 1.18,-1.33 1.34,-1.19 1.46,-1.01 1.58,-0.83 1.66,-0.63 1.74,-0.42 1.76,-0.21 1.79,0.00 1.79,0.00 L 1.79,0 Z"></path></g><g transform="translate(404.4319917622282 549.0691310676303) rotate(0 21.77844341002833 -4.234703740082921)" stroke="none"><path fill="#1e1e1e" d="M 0,-1.78 Q 0,-1.78 2.43,-1.72 4.86,-1.65 8.54,-2.29 12.22,-2.93 19.70,-4.91 27.18,-6.90 31.79,-8.09 36.39,-9.28 38.34,-9.80 40.29,-10.32 40.53,-10.35 40.76,-10.37 40.99,-10.32 41.22,-10.26 41.42,-10.14 41.63,-10.01 41.78,-9.83 41.93,-9.65 42.01,-9.43 42.10,-9.21 42.11,-8.97 42.12,-8.74 42.05,-8.51 41.98,-8.28 41.85,-8.09 41.71,-7.89 41.52,-7.75 41.33,-7.61 41.11,-7.54 40.88,-7.47 40.65,-7.47 40.41,-7.47 40.19,-7.55 39.96,-7.63 39.78,-7.78 39.59,-7.92 39.46,-8.12 39.33,-8.32 39.27,-8.54 39.21,-8.77 39.23,-9.01 39.24,-9.24 39.33,-9.46 39.42,-9.68 39.58,-9.86 39.73,-10.04 39.94,-10.16 40.14,-10.28 40.37,-10.32 40.61,-10.37 40.84,-10.34 41.07,-10.31 41.29,-10.21 41.50,-10.11 41.67,-9.95 41.84,-9.78 41.95,-9.57 42.06,-9.36 42.09,-9.13 42.13,-8.89 42.08,-8.66 42.04,-8.43 41.93,-8.22 41.82,-8.01 41.64,-7.85 41.47,-7.69 41.25,-7.60 41.04,-7.50 41.04,-7.50 41.04,-7.50 39.08,-6.99 37.13,-6.48 32.55,-5.25 27.96,-4.01 20.37,-1.93 12.78,0.14 8.83,0.90 4.87,1.65 2.43,1.72 0,1.78 -0.21,1.75 -0.42,1.73 -0.62,1.65 -0.82,1.58 -1.00,1.45 -1.18,1.33 -1.32,1.17 -1.46,1.01 -1.56,0.82 -1.66,0.63 -1.72,0.42 -1.77,0.21 -1.77,-0.00 -1.77,-0.21 -1.72,-0.42 -1.66,-0.63 -1.56,-0.82 -1.46,-1.01 -1.32,-1.17 -1.18,-1.33 -1.00,-1.45 -0.82,-1.58 -0.62,-1.65 -0.42,-1.73 -0.21,-1.75 0.00,-1.78 0.00,-1.78 L 0,-1.78 Z"></path></g><g transform="translate(463.7177748915532 538.1798862853374) rotate(0 18.75366985964834 7.864459693273545)" stroke="none"><path fill="#1e1e1e" d="M 1.56,0 Q 1.56,0 1.52,2.43 1.49,4.86 1.46,8.33 1.44,11.79 2.73,16.12 4.02,20.46 6.10,22.10 8.18,23.75 10.36,22.49 12.53,21.24 14.78,18.12 17.03,15.01 18.68,9.28 20.33,3.55 21.06,-0.63 21.78,-4.82 22.39,-7.29 23.00,-9.76 24.79,-9.92 26.57,-10.09 27.44,-8.40 28.31,-6.70 29.30,-2.38 30.29,1.93 31.71,6.80 33.14,11.67 34.41,15.10 35.68,18.52 37.44,20.35 39.20,22.18 39.34,22.41 39.48,22.65 39.54,22.91 39.59,23.17 39.56,23.44 39.54,23.71 39.42,23.96 39.31,24.20 39.12,24.40 38.94,24.60 38.70,24.72 38.46,24.85 38.19,24.89 37.92,24.94 37.66,24.89 37.39,24.85 37.15,24.72 36.91,24.60 36.72,24.40 36.54,24.20 36.42,23.96 36.31,23.71 36.28,23.44 36.25,23.17 36.31,22.91 36.37,22.65 36.51,22.41 36.65,22.18 36.85,22.01 37.06,21.83 37.31,21.73 37.56,21.63 37.83,21.62 38.10,21.60 38.36,21.67 38.63,21.75 38.85,21.90 39.07,22.05 39.24,22.27 39.40,22.48 39.49,22.74 39.57,22.99 39.57,23.26 39.57,23.54 39.49,23.79 39.40,24.05 39.24,24.26 39.07,24.48 38.85,24.63 38.63,24.78 38.37,24.86 38.10,24.93 37.83,24.91 37.56,24.90 37.31,24.80 37.06,24.70 36.85,24.52 36.65,24.35 36.65,24.35 36.65,24.35 34.83,21.97 33.01,19.59 31.64,16.06 30.28,12.53 28.77,7.59 27.26,2.65 26.26,-1.38 25.27,-5.41 24.86,-6.73 24.45,-8.05 24.43,-6.21 24.41,-4.36 23.66,-0.02 22.90,4.30 21.06,10.43 19.22,16.57 16.54,20.08 13.85,23.60 10.97,24.85 8.09,26.11 4.81,23.84 1.53,21.57 0.04,16.70 -1.44,11.82 -1.46,8.34 -1.49,4.86 -1.52,2.43 -1.56,0 -1.53,-0.18 -1.51,-0.37 -1.45,-0.54 -1.38,-0.72 -1.27,-0.88 -1.16,-1.03 -1.02,-1.16 -0.88,-1.28 -0.72,-1.37 -0.55,-1.46 -0.37,-1.50 -0.18,-1.55 0.00,-1.55 0.18,-1.55 0.37,-1.50 0.55,-1.46 0.72,-1.37 0.88,-1.28 1.02,-1.16 1.16,-1.03 1.27,-0.88 1.38,-0.72 1.45,-0.54 1.51,-0.37 1.53,-0.18 1.56,0.00 1.56,0.00 L 1.56,0 Z"></path></g><g transform="translate(531.4729424237653 520.0311757512209) rotate(0 -4.839628449696477 38.717258370360184)" stroke="none"><path fill="#1e1e1e" d="M 0.41,1.50 Q 0.41,1.50 -3.41,2.51 -7.23,3.51 -10.74,5.91 -14.24,8.32 -17.40,12.69 -20.56,17.07 -21.98,20.17 -23.40,23.27 -22.31,24.43 -21.21,25.59 -18.50,24.79 -15.79,23.99 -11.27,19.99 -6.74,15.99 -4.11,12.27 -1.49,8.55 -0.76,6.39 -0.03,4.24 -0.09,3.91 -0.15,3.58 -0.07,3.43 -0.00,3.27 0.11,3.13 0.22,3.00 0.36,2.90 0.50,2.79 0.66,2.73 0.82,2.66 1.00,2.64 1.17,2.61 1.34,2.63 1.52,2.64 1.68,2.70 1.85,2.76 1.99,2.85 2.14,2.95 2.26,3.08 2.38,3.20 2.47,3.36 2.55,3.51 2.60,3.68 2.64,3.85 2.65,4.02 2.65,4.20 2.62,4.37 2.58,4.54 2.59,6.26 2.60,7.98 3.96,13.52 5.32,19.07 7.98,26.65 10.63,34.23 12.47,41.00 14.31,47.77 15.45,54.18 16.58,60.59 15.94,65.35 15.29,70.11 12.03,72.68 8.77,75.24 4.65,75.56 0.53,75.89 -2.45,73.77 -5.45,71.64 -7.33,67.26 -9.22,62.89 -9.27,62.64 -9.32,62.39 -9.29,62.14 -9.26,61.89 -9.15,61.66 -9.04,61.43 -8.87,61.25 -8.69,61.07 -8.46,60.96 -8.24,60.84 -7.99,60.81 -7.74,60.77 -7.49,60.81 -7.24,60.86 -7.02,60.98 -6.80,61.10 -6.63,61.29 -6.46,61.47 -6.36,61.71 -6.25,61.94 -6.23,62.19 -6.21,62.44 -6.26,62.68 -6.32,62.93 -6.46,63.14 -6.59,63.36 -6.78,63.52 -6.98,63.68 -7.22,63.77 -7.45,63.86 -7.70,63.87 -7.96,63.88 -8.20,63.81 -8.44,63.74 -8.65,63.59 -8.85,63.45 -9.00,63.24 -9.15,63.04 -9.23,62.80 -9.31,62.56 -9.30,62.31 -9.30,62.05 -9.22,61.82 -9.13,61.58 -8.98,61.38 -8.82,61.18 -8.61,61.04 -8.40,60.90 -8.15,60.84 -7.91,60.78 -7.66,60.79 -7.40,60.81 -7.17,60.91 -6.94,61.01 -6.75,61.17 -6.56,61.34 -6.43,61.56 -6.30,61.78 -6.30,61.78 -6.30,61.77 -5.01,65.74 -3.72,69.71 -1.47,71.55 0.78,73.38 4.10,73.20 7.42,73.02 10.20,71.12 12.98,69.22 13.47,65.12 13.95,61.02 12.83,54.75 11.71,48.48 9.89,41.80 8.06,35.12 5.36,27.42 2.65,19.72 1.23,13.86 -0.18,7.99 -0.17,5.79 -0.15,3.58 -0.07,3.43 -0.00,3.27 0.11,3.13 0.22,3.00 0.36,2.90 0.50,2.79 0.66,2.73 0.82,2.66 1.00,2.64 1.17,2.61 1.34,2.63 1.52,2.64 1.68,2.70 1.85,2.76 1.99,2.85 2.14,2.95 2.26,3.08 2.38,3.20 2.47,3.36 2.55,3.51 2.60,3.68 2.64,3.85 2.65,4.02 2.65,4.20 2.62,4.37 2.58,4.54 2.53,4.80 2.47,5.06 1.58,7.56 0.69,10.07 -2.14,14.04 -4.97,18.00 -10.01,22.28 -15.04,26.55 -18.47,27.20 -21.89,27.86 -23.77,25.89 -25.65,23.93 -24.25,19.68 -22.85,15.43 -19.38,10.70 -15.91,5.97 -11.99,3.31 -8.07,0.65 -4.24,-0.42 -0.41,-1.50 -0.22,-1.53 -0.03,-1.56 0.14,-1.54 0.33,-1.52 0.51,-1.46 0.69,-1.40 0.84,-1.29 1.00,-1.19 1.13,-1.05 1.26,-0.91 1.35,-0.75 1.44,-0.58 1.49,-0.40 1.54,-0.22 1.55,-0.03 1.55,0.15 1.51,0.33 1.47,0.51 1.39,0.68 1.30,0.85 1.18,0.99 1.06,1.14 0.91,1.25 0.75,1.36 0.58,1.43 0.41,1.50 0.41,1.50 L 0.41,1.50 Z"></path></g><g transform="translate(550.8315946862242 493.413103891496) rotate(0 19.358629185180092 24.19825763487657)" stroke="none"><path fill="#1e1e1e" d="M -1.47,0.98 Q -1.47,0.98 -2.01,0.12 -2.56,-0.73 -3.49,-0.92 -4.42,-1.11 -4.53,-1.34 -4.64,-1.56 -4.70,-1.81 -4.76,-2.05 -4.75,-2.31 -4.75,-2.56 -4.68,-2.80 -4.62,-3.05 -4.50,-3.27 -4.38,-3.49 -4.21,-3.68 -4.04,-3.86 -3.83,-4.00 -3.62,-4.14 -3.38,-4.23 -3.14,-4.31 -2.89,-4.34 -2.64,-4.37 -2.39,-4.33 -2.14,-4.30 -1.91,-4.20 -1.67,-4.11 -1.47,-3.96 -1.26,-3.82 -1.10,-3.63 -0.93,-3.43 -0.68,-1.93 -0.43,-0.42 0.18,6.23 0.80,12.89 1.72,19.18 2.64,25.46 4.67,32.85 6.70,40.23 7.48,41.49 8.25,42.74 11.10,39.57 13.94,36.40 16.93,32.98 19.92,29.56 23.02,26.98 26.12,24.40 29.23,22.93 32.34,21.45 35.27,23.02 38.20,24.59 39.84,28.26 41.49,31.94 42.12,35.27 42.76,38.59 43.02,41.04 43.29,43.49 43.54,45.45 43.80,47.41 43.78,47.66 43.76,47.91 43.66,48.13 43.57,48.36 43.40,48.55 43.23,48.73 43.02,48.85 42.80,48.97 42.56,49.02 42.31,49.07 42.07,49.03 41.82,49.00 41.60,48.89 41.38,48.78 41.20,48.60 41.02,48.43 40.91,48.20 40.80,47.98 40.77,47.73 40.74,47.49 40.79,47.24 40.83,47.00 40.96,46.78 41.08,46.57 41.26,46.40 41.45,46.24 41.68,46.14 41.91,46.04 42.15,46.02 42.40,46.00 42.64,46.06 42.88,46.12 43.09,46.26 43.30,46.39 43.46,46.58 43.61,46.78 43.70,47.01 43.78,47.25 43.79,47.49 43.79,47.74 43.72,47.98 43.65,48.22 43.50,48.42 43.36,48.62 43.16,48.76 42.95,48.91 42.72,48.98 42.48,49.05 42.23,49.05 41.98,49.04 41.75,48.95 41.52,48.87 41.32,48.71 41.13,48.56 40.99,48.35 40.86,48.14 40.80,47.90 40.74,47.65 40.74,47.65 40.74,47.65 40.69,45.72 40.64,43.78 40.39,41.43 40.14,39.08 39.57,36.03 39.00,32.97 37.80,29.82 36.60,26.67 34.47,25.26 32.35,23.86 30.13,25.21 27.90,26.56 24.99,29.00 22.08,31.44 19.10,34.91 16.12,38.39 13.13,41.62 10.13,44.85 6.97,43.16 3.82,41.47 1.52,33.74 -0.78,26.01 -1.86,19.66 -2.95,13.30 -3.68,6.09 -4.42,-1.11 -4.53,-1.34 -4.64,-1.56 -4.70,-1.81 -4.76,-2.05 -4.75,-2.31 -4.75,-2.56 -4.68,-2.80 -4.62,-3.05 -4.50,-3.27 -4.38,-3.49 -4.21,-3.68 -4.04,-3.86 -3.83,-4.00 -3.62,-4.14 -3.38,-4.23 -3.14,-4.31 -2.89,-4.34 -2.64,-4.37 -2.39,-4.33 -2.14,-4.30 -1.91,-4.20 -1.67,-4.11 -1.47,-3.96 -1.26,-3.82 -1.10,-3.63 -0.93,-3.43 -0.57,-3.43 -0.21,-3.43 0.62,-2.21 1.47,-0.98 1.56,-0.79 1.66,-0.60 1.71,-0.39 1.75,-0.18 1.75,0.02 1.75,0.24 1.69,0.44 1.64,0.65 1.54,0.84 1.43,1.02 1.29,1.18 1.15,1.34 0.97,1.46 0.79,1.57 0.59,1.65 0.39,1.72 0.18,1.74 -0.02,1.76 -0.23,1.74 -0.45,1.71 -0.64,1.63 -0.84,1.55 -1.02,1.42 -1.19,1.30 -1.33,1.14 -1.47,0.98 -1.47,0.98 L -1.47,0.98 Z"></path></g><g transform="translate(429.77890193844246 116.02979657206436) rotate(0 -68.0626481538797 86.7464734222151)" stroke="none"><path fill="#e03131" d="M 1.48,0.49 Q 1.48,0.49 0.67,2.79 -0.12,5.09 -4.41,10.86 -8.70,16.63 -13.56,22.84 -18.42,29.05 -32.81,44.01 -47.21,58.98 -64.81,77.58 -82.42,96.19 -94.47,110.97 -106.53,125.74 -114.69,138.86 -122.84,151.97 -123.95,158.14 -125.05,164.30 -125.56,167.01 -126.06,169.72 -126.14,169.92 -126.21,170.13 -126.34,170.29 -126.48,170.46 -126.66,170.58 -126.84,170.70 -127.04,170.75 -127.25,170.80 -127.47,170.79 -127.68,170.77 -127.88,170.69 -128.08,170.60 -128.24,170.46 -128.40,170.32 -128.50,170.13 -128.61,169.95 -128.65,169.73 -128.69,169.52 -128.67,169.31 -128.64,169.10 -128.54,168.90 -128.45,168.71 -128.30,168.56 -128.15,168.41 -127.96,168.31 -127.77,168.21 -127.55,168.18 -127.34,168.15 -127.13,168.19 -126.92,168.23 -126.73,168.34 -126.54,168.44 -126.40,168.60 -126.25,168.76 -126.17,168.96 -126.08,169.15 -126.06,169.37 -126.04,169.58 -126.10,169.79 -126.15,170.00 -126.26,170.18 -126.38,170.36 -126.54,170.50 -126.71,170.63 -126.91,170.71 -127.11,170.78 -127.33,170.79 -127.54,170.80 -127.75,170.73 -127.95,170.67 -128.13,170.55 -128.30,170.42 -128.43,170.25 -128.55,170.08 -128.62,169.87 -128.68,169.67 -128.68,169.45 -128.67,169.24 -128.67,169.24 -128.67,169.24 -128.17,166.53 -127.67,163.81 -126.41,157.22 -125.14,150.62 -116.88,137.33 -108.63,124.04 -96.51,109.18 -84.40,94.32 -66.80,75.69 -49.20,57.06 -34.92,42.19 -20.64,27.32 -15.83,21.11 -11.01,14.90 -6.98,9.50 -2.94,4.11 -2.21,1.80 -1.48,-0.49 -1.40,-0.66 -1.32,-0.83 -1.20,-0.98 -1.08,-1.12 -0.93,-1.23 -0.78,-1.35 -0.60,-1.42 -0.43,-1.50 -0.24,-1.53 -0.06,-1.56 0.12,-1.54 0.31,-1.53 0.49,-1.47 0.66,-1.41 0.82,-1.31 0.98,-1.21 1.11,-1.07 1.24,-0.93 1.34,-0.77 1.43,-0.61 1.48,-0.43 1.54,-0.25 1.54,-0.06 1.55,0.12 1.51,0.30 1.48,0.49 1.48,0.49 L 1.48,0.49 Z"></path></g><g transform="translate(464.4774709435417 137.38275428143822) rotate(0 54.71698594868741 50.71331274186315)" stroke="none"><path fill="#e03131" d="M 0.18,-1.63 Q 0.18,-1.63 7.09,-0.81 14.01,-0.00 22.56,4.26 31.11,8.54 43.24,20.43 55.37,32.32 67.41,47.36 79.45,62.40 87.61,72.61 95.76,82.81 99.99,87.91 104.21,93.01 106.01,95.18 107.80,97.35 107.91,97.54 108.02,97.73 108.07,97.94 108.11,98.16 108.09,98.37 108.06,98.59 107.97,98.79 107.87,98.99 107.72,99.14 107.57,99.30 107.38,99.40 107.18,99.50 106.97,99.53 106.75,99.57 106.54,99.53 106.32,99.49 106.13,99.39 105.94,99.28 105.79,99.12 105.64,98.96 105.55,98.76 105.46,98.56 105.44,98.35 105.42,98.13 105.47,97.92 105.52,97.70 105.63,97.52 105.75,97.33 105.92,97.19 106.08,97.05 106.29,96.97 106.49,96.90 106.71,96.89 106.93,96.88 107.14,96.94 107.35,97.00 107.53,97.12 107.70,97.25 107.83,97.42 107.96,97.60 108.03,97.81 108.10,98.01 108.10,98.23 108.09,98.45 108.02,98.66 107.95,98.86 107.82,99.03 107.68,99.21 107.50,99.33 107.32,99.45 107.11,99.50 106.90,99.56 106.68,99.54 106.46,99.53 106.26,99.45 106.06,99.36 105.89,99.22 105.73,99.08 105.73,99.08 105.73,99.08 103.92,96.91 102.12,94.75 97.86,89.65 93.61,84.54 85.43,74.35 77.26,64.16 65.30,49.27 53.35,34.37 41.54,22.77 29.74,11.17 21.67,7.12 13.60,3.07 6.71,2.35 -0.18,1.63 -0.37,1.59 -0.56,1.54 -0.74,1.45 -0.92,1.36 -1.07,1.23 -1.22,1.10 -1.33,0.94 -1.45,0.77 -1.52,0.59 -1.59,0.41 -1.62,0.21 -1.64,0.01 -1.62,-0.18 -1.60,-0.37 -1.53,-0.56 -1.46,-0.75 -1.35,-0.91 -1.24,-1.07 -1.09,-1.21 -0.94,-1.34 -0.77,-1.43 -0.59,-1.53 -0.40,-1.58 -0.21,-1.63 -0.01,-1.63 0.18,-1.63 0.18,-1.63 L 0.18,-1.63 Z"></path></g><g transform="translate(560.565831545191 118.69887810363582) rotate(0 153.47452990084213 49.37877197607742)" stroke="none"><path fill="#e03131" d="M 0,-1.56 Q 0,-1.56 4.60,-1.52 9.21,-1.49 32.00,2.37 54.80,6.24 75.26,12.52 95.73,18.79 116.69,26.07 137.65,33.34 159.59,41.04 181.54,48.73 208.51,58.15 235.48,67.56 253.09,73.87 270.70,80.17 281.31,85.18 291.92,90.19 295.63,92.31 299.35,94.42 299.48,94.51 299.62,94.59 299.73,94.71 299.84,94.82 299.92,94.96 300.00,95.10 300.05,95.25 300.09,95.41 300.10,95.57 300.10,95.73 300.07,95.89 300.04,96.04 299.97,96.19 299.90,96.33 299.80,96.46 299.70,96.58 299.57,96.68 299.45,96.77 299.30,96.84 299.15,96.90 298.99,96.92 298.84,96.95 298.68,96.94 298.52,96.93 298.37,96.87 298.21,96.82 295.95,97.40 293.68,97.97 293.44,97.83 293.19,97.70 293.00,97.49 292.81,97.28 292.69,97.02 292.58,96.76 292.56,96.48 292.53,96.20 292.60,95.92 292.66,95.65 292.81,95.41 292.96,95.17 293.18,94.99 293.40,94.81 293.67,94.71 293.93,94.61 294.21,94.60 294.50,94.59 294.77,94.67 295.04,94.75 295.27,94.92 295.50,95.08 295.67,95.31 295.83,95.54 295.92,95.81 296.00,96.08 296.00,96.36 295.99,96.64 295.90,96.91 295.80,97.17 295.63,97.40 295.45,97.62 295.21,97.77 294.98,97.93 294.70,98.00 294.43,98.07 294.15,98.05 293.86,98.02 293.60,97.92 293.34,97.81 293.13,97.62 292.92,97.43 292.78,97.19 292.64,96.94 292.58,96.66 292.53,96.39 292.56,96.11 292.60,95.83 292.72,95.57 292.85,95.32 293.04,95.11 293.24,94.91 293.50,94.79 293.75,94.66 294.03,94.62 294.31,94.58 294.59,94.63 294.86,94.68 294.86,94.68 294.86,94.68 296.08,95.39 297.29,96.09 298.32,95.26 299.35,94.42 299.48,94.51 299.62,94.59 299.73,94.71 299.84,94.82 299.92,94.96 300.00,95.10 300.05,95.25 300.09,95.41 300.10,95.57 300.10,95.73 300.07,95.88 300.04,96.04 299.97,96.19 299.90,96.33 299.80,96.46 299.70,96.58 299.57,96.68 299.45,96.77 299.30,96.84 299.15,96.90 298.99,96.92 298.84,96.95 298.68,96.94 298.52,96.93 298.37,96.87 298.21,96.82 294.50,94.71 290.78,92.60 280.29,87.65 269.79,82.69 252.19,76.40 234.59,70.11 207.61,60.71 180.63,51.31 158.69,43.63 136.74,35.95 115.82,28.72 94.90,21.49 74.61,15.29 54.31,9.09 31.76,5.29 9.20,1.49 4.60,1.52 0,1.56 -0.18,1.53 -0.37,1.51 -0.54,1.45 -0.72,1.38 -0.88,1.27 -1.03,1.16 -1.16,1.02 -1.28,0.88 -1.37,0.72 -1.46,0.55 -1.50,0.37 -1.55,0.18 -1.55,-0.00 -1.55,-0.18 -1.50,-0.37 -1.46,-0.55 -1.37,-0.72 -1.28,-0.88 -1.16,-1.02 -1.03,-1.16 -0.88,-1.27 -0.72,-1.38 -0.54,-1.45 -0.37,-1.51 -0.18,-1.53 0.00,-1.56 0.00,-1.56 L 0,-1.56 Z"></path></g><g transform="translate(224.25641671101755 396.2876337822977) rotate(0 -65.39349025810776 76.06999456752823)" stroke="none"><path fill="#e03131" d="M 1.10,1.10 Q 1.10,1.10 -4.29,6.45 -9.68,11.79 -19.68,20.99 -29.67,30.18 -41.56,42.48 -53.45,54.79 -66.95,69.23 -80.45,83.67 -91.55,96.69 -102.64,109.71 -110.41,120.57 -118.17,131.44 -121.46,136.81 -124.74,142.17 -126.15,145.23 -127.57,148.30 -127.67,148.43 -127.76,148.55 -127.89,148.65 -128.02,148.75 -128.17,148.81 -128.31,148.88 -128.47,148.91 -128.63,148.93 -128.79,148.92 -128.95,148.91 -129.10,148.86 -129.26,148.82 -129.39,148.73 -129.53,148.65 -129.64,148.53 -129.76,148.42 -129.84,148.28 -129.92,148.14 -129.97,147.99 -130.01,147.84 -130.02,147.68 -130.03,147.52 -130.00,147.36 -129.97,147.20 -129.90,147.05 -129.84,146.91 -124.63,145.60 -119.43,144.30 -117.40,143.87 -115.37,143.43 -115.16,143.42 -114.94,143.41 -114.73,143.47 -114.52,143.53 -114.34,143.66 -114.16,143.78 -114.03,143.96 -113.90,144.13 -113.83,144.34 -113.76,144.55 -113.76,144.77 -113.76,144.99 -113.84,145.19 -113.91,145.40 -114.04,145.57 -114.18,145.75 -114.36,145.87 -114.54,145.99 -114.75,146.04 -114.96,146.10 -115.18,146.09 -115.40,146.07 -115.60,145.99 -115.81,145.91 -115.97,145.76 -116.14,145.62 -116.25,145.43 -116.36,145.24 -116.40,145.03 -116.45,144.81 -116.42,144.60 -116.40,144.38 -116.30,144.18 -116.21,143.98 -116.06,143.83 -115.90,143.67 -115.71,143.57 -115.52,143.47 -115.30,143.44 -115.08,143.40 -114.87,143.44 -114.65,143.48 -114.46,143.58 -114.27,143.69 -114.12,143.85 -113.97,144.01 -113.88,144.21 -113.79,144.41 -113.77,144.63 -113.75,144.84 -113.80,145.06 -113.85,145.27 -113.96,145.46 -114.08,145.64 -114.24,145.78 -114.41,145.92 -114.62,146.00 -114.82,146.08 -114.82,146.08 -114.82,146.08 -116.85,146.49 -118.88,146.91 -123.22,147.60 -127.57,148.30 -127.67,148.42 -127.76,148.55 -127.89,148.65 -128.02,148.75 -128.17,148.81 -128.31,148.88 -128.47,148.91 -128.63,148.93 -128.79,148.92 -128.95,148.91 -129.10,148.86 -129.26,148.82 -129.39,148.73 -129.53,148.65 -129.64,148.53 -129.76,148.42 -129.84,148.28 -129.92,148.14 -129.97,147.99 -130.01,147.84 -130.02,147.68 -130.03,147.52 -130.00,147.36 -129.97,147.20 -129.90,147.05 -129.84,146.91 -128.43,143.84 -127.03,140.77 -123.70,135.32 -120.36,129.87 -112.54,118.91 -104.72,107.94 -93.60,94.86 -82.47,81.78 -68.98,67.30 -55.48,52.83 -43.55,40.44 -31.63,28.06 -21.71,18.87 -11.79,9.68 -6.45,4.29 -1.10,-1.10 -0.95,-1.22 -0.80,-1.33 -0.63,-1.41 -0.46,-1.49 -0.27,-1.52 -0.09,-1.55 0.09,-1.54 0.28,-1.53 0.46,-1.48 0.64,-1.42 0.80,-1.32 0.96,-1.22 1.09,-1.09 1.22,-0.96 1.32,-0.80 1.42,-0.64 1.48,-0.46 1.53,-0.28 1.54,-0.09 1.55,0.09 1.52,0.27 1.49,0.46 1.41,0.63 1.33,0.80 1.22,0.95 1.10,1.10 1.10,1.10 L 1.10,1.10 Z"></path></g><g transform="translate(320.34482822213386 382.94202248657234) rotate(0 74.7354283470089 37.367701446137744)" stroke="none"><path fill="#e03131" d="M 0.42,-1.69 Q 0.42,-1.69 3.48,-0.86 6.53,-0.04 18.71,5.74 30.89,11.53 46.77,20.14 62.66,28.74 76.30,36.24 89.94,43.74 104.12,49.97 118.30,56.21 128.22,61.19 138.14,66.17 141.26,68.39 144.38,70.61 144.58,70.72 144.79,70.84 144.95,71.01 145.11,71.18 145.20,71.39 145.30,71.61 145.32,71.84 145.34,72.08 145.29,72.30 145.24,72.53 145.12,72.73 144.99,72.93 144.81,73.08 144.63,73.23 144.41,73.32 144.19,73.40 143.96,73.41 143.72,73.42 143.50,73.36 143.27,73.29 143.08,73.16 142.89,73.02 142.75,72.83 142.61,72.65 142.54,72.42 142.46,72.20 142.47,71.97 142.47,71.73 142.55,71.51 142.62,71.29 142.77,71.10 142.91,70.92 143.11,70.79 143.30,70.66 143.53,70.60 143.76,70.54 143.99,70.55 144.22,70.57 144.44,70.66 144.66,70.75 144.84,70.90 145.01,71.05 145.13,71.26 145.25,71.46 145.30,71.69 145.35,71.92 145.32,72.15 145.29,72.38 145.19,72.60 145.09,72.81 144.93,72.98 144.76,73.15 144.55,73.25 144.35,73.36 144.11,73.40 143.88,73.43 143.65,73.39 143.42,73.35 143.42,73.35 143.42,73.35 140.16,70.99 136.89,68.63 127.03,63.70 117.17,58.77 102.87,52.51 88.56,46.25 74.91,38.80 61.25,31.35 45.41,22.83 29.57,14.32 17.65,8.71 5.73,3.11 2.65,2.40 -0.42,1.69 -0.61,1.61 -0.81,1.54 -0.98,1.42 -1.16,1.30 -1.30,1.14 -1.43,0.98 -1.53,0.80 -1.63,0.61 -1.68,0.40 -1.73,0.20 -1.73,-0.00 -1.73,-0.21 -1.68,-0.42 -1.63,-0.62 -1.53,-0.81 -1.43,-0.99 -1.29,-1.15 -1.15,-1.31 -0.97,-1.42 -0.80,-1.54 -0.60,-1.62 -0.41,-1.69 -0.20,-1.72 0.00,-1.74 0.21,-1.71 0.42,-1.69 0.42,-1.69 L 0.42,-1.69 Z"></path></g></svg>